<?xml version="1.0" encoding="utf-8"?>
<!-- Generator: Adobe Illustrator 22.0.1, SVG Export Plug-In . SVG Version: 6.00 Build 0)  -->
<svg version="1.1" id="Layer_1" xmlns="http://www.w3.org/2000/svg" xmlns:xlink="http://www.w3.org/1999/xlink" x="0px" y="0px"
	 viewBox="0 0 520 520" style="enable-background:new 0 0 520 520;" xml:space="preserve">
<style type="text/css">
	.st0{fill:#FFFFFF;}
</style>
<g id="o9fc1O.tif">
	<g>
		<path class="st0" d="M152.7,461.9c0-98,0-195.5,0-293.8c-2.5,0-4.7,0-7,0c-36.6,0-73.2,0-109.8,0c-11.4,0-13.2-1.9-13.2-13.5
			c0-1.7-0.1-3.5,0-5.2c0.3-5.9,3.2-9.8,8.8-9c11.7,1.8,19.3-4.4,27.4-11.1c41.8-34.3,83.8-68.2,125.7-102.4
			c2.2-1.8,4.1-4.5,5.3-7.1c2-4.3,4.9-7,9.5-7.2c4.8-0.2,8.2,2.2,10.6,6.5c1,1.8,2.8,3.6,4.7,4.5c86.4,38.4,172.8,76.8,259.3,114.9
			c3.8,1.7,8.6,1.4,12.9,1.6c8.1,0.4,10.6,2.8,10.6,10.8c0,1.7,0,3.4,0,5.2c0,9-1.1,10.4-10.4,12.7c0,8.2,0,16.6,0,25
			c0,8.6,0,17.2,0,25.9c0,5.1-0.8,10.1,4.9,13.5c1.8,1.1,2.9,4.6,3.1,7.1c0.9,11.5,0.6,23.2-3.6,34c-2.6,6.6-5.8,13.8-15,17.4
			c1.6,1.8,2.8,3.9,4.6,4.9c9.8,5.5,13.9,13.6,11.9,24.4c-1.6,8.5-8.1,14.7-16.3,15.4c-9.2,0.8-17.9-4.2-21-12
			c-0.4-1.1-1.1-2.3-0.8-3.3c0.5-1.8,1.6-3.4,2.5-5.1c1.6,1,3.6,1.7,4.7,3c1.8,2.1,2.6,5.2,4.7,6.9c5.1,4.1,12.7,3.3,16-1.2
			c4.1-5.6,3.3-14.8-1.7-18.8c-0.9-0.7-1.9-1.3-2.9-1.8c-8.2-4.1-8.2-4.1-9.4-12.9c-8.7-2.6-10.2-11.1-13.2-17.6
			c-4.6-10.2-5.3-21.6-4.1-32.7c0.4-3.4,3.2-6.6,4.9-9.8c0.9-1.5,2.8-2.9,2.8-4.4c0.2-19.1,0.1-38.3,0.1-57.9
			c-70.8,0-141.2,0-211.9,0c0,97.6,0,195.1,0,292.9c1.8,0.1,3.5,0.3,5.2,0.3c14.8,0,29.5,0,44.3,0.1c8,0.1,12,4.1,12.2,12
			c0.1,6.7,0,13.4,0,20.1c0,9.4-3.8,13.2-13.3,13.3c-21.3,0.1-42.5,0-63.8,0c-41.8,0-83.6,0-125.3,0c-12.2,0-15.3-3.1-15.3-15.3
			c0-5.9-0.1-11.9,0-17.8c0.2-8.4,4.1-12.3,12.5-12.3c14.2-0.1,28.4,0,42.5,0C148.2,461.9,150.3,461.9,152.7,461.9z M214.3,32.4
			c0.2,1.9,0.2,3,0.4,4c9.4,33.1,18.9,66.2,28.1,99.4c1.1,4.1,3.3,4.3,6.6,4.3c66.5-0.1,133,0,199.5-0.1c1.6,0,3.1-0.3,4.7-0.4
			c0-0.4,0.1-0.7,0.1-1.1C374.3,103.4,294.6,68.1,214.3,32.4z M184.4,38.9c-0.3-0.2-0.6-0.4-0.9-0.6
			C142.3,71.9,101,105.4,59.1,139.5c1.9,0.4,2.5,0.6,3,0.6c29.9,0,59.7,0,89.6,0.1c3.4,0,4.6-1.4,5.4-4.4c5.3-19,10.7-37.9,16-56.8
			C176.9,65.7,180.6,52.3,184.4,38.9z M222.8,139.9c-7.6-26.8-14.9-52.6-22.3-78.5c-0.4,0-0.7,0.1-1.1,0.1
			c-7.4,26-14.7,52-22.2,78.4C192.7,139.9,207.4,139.9,222.8,139.9z M222.6,168.6c-16.8,0-32.1,0-47.4,0c0,12.9,0,25.3,0,38.8
			C191.2,194.3,206.4,181.9,222.6,168.6z M219.8,240.6c-0.1-0.5-0.2-1-0.3-1.5c-13.9,0-27.7-0.1-41.6,0.2c-1.1,0-2.9,2.6-3,4.1
			c-0.3,7.6-0.1,15.3-0.1,22.9c0,3.3,0,6.6,0,11.2C190.6,264.5,205.2,252.5,219.8,240.6z M175,416.5c15.7-12.9,30.3-24.8,45.9-37.7
			c-16.2,0-30.9,0-45.9,0C175,391.2,175,403.2,175,416.5z M175,346.8c15.8-12.9,30.4-24.9,45.9-37.6c-16.3,0-31,0-45.9,0
			C175,321.5,175,333.5,175,346.8z M224.7,291.9c0-11.2,0-22.1,0-33.9c-13.9,11.4-27.1,22.2-41.5,33.9
			C198.2,291.9,211.4,291.9,224.7,291.9z M224.6,431.2c0-11.5,0-22.3,0-34c-14,11.4-27.1,22.2-41.5,34
			C198,431.2,211.1,431.2,224.6,431.2z M183.2,222.3c14.8,0,28.1,0,41.4,0c0-11.2,0-22,0-33.9C210.6,199.8,197.4,210.6,183.2,222.3z
			 M224.7,361.5c0-11.3,0-22.1,0-33.9c-14.1,11.5-27.3,22.3-41.5,33.9C197.9,361.5,211.1,361.5,224.7,361.5z M175.2,448.1
			c0,4.6,0,9,0,13.4c16.9,0,33.3,0,49.6,0c0-4.7,0-8.9,0-13.4C208.2,448.1,192.1,448.1,175.2,448.1z M467.7,168.3
			c0,20.3,0,40.1,0,59.8c3.9,0,7.2,0,10.7,0c0-20.1,0-39.8,0-59.8C474.7,168.3,471.4,168.3,467.7,168.3z"/>
		<path class="st0" d="M68.7,174.1c10.9,0,21.8,0,32.8,0c9.2,0,13.3,4,13.5,13.3c0.1,6.1,0.1,12.3-0.1,18.4
			c-0.2,8.3-4.2,12.6-12.3,12.7c-22.4,0.2-44.8,0.2-67.2,0c-8.4-0.1-12.5-4.5-12.6-13c-0.1-6.3-0.2-12.6,0-19
			c0.2-8.1,4.6-12.3,12.7-12.4C46.5,174.1,57.6,174.1,68.7,174.1z"/>
	</g>
</g>
</svg>
