<svg xmlns="http://www.w3.org/2000/svg" viewBox="0 0 144.29 119.74"><defs><style>.cls-1{fill:#577882;}.cls-2{fill:#bccdcc;}</style></defs><g id="Layer_2" data-name="Layer 2"><g id="Isolation_Mode" data-name="Isolation Mode"><path class="cls-1" d="M51.73,18.93c.42,10.23,6.13,21.35,9.78,30.71Q66.06,61.31,71,72.82c6.17-15,12.34-30.19,16.62-45.82,2.66-9.68,2-19.73-8.21-24.95C67.12-4.25,51.14,4.73,51.73,18.93Z"/><path class="cls-2" d="M35.1,39.21C38.5,42.73,41.9,44.29,59,55.7c-8.55-16.31-10.69-20.64-13.84-25-3.81-5.33-10.91-7.69-14.59-5-4.89,3.63,1,10,4.52,13.51,2.21,2.16-2.13-2.27,0,0Z"/><path class="cls-2" d="M106.83,39.21c-3.4,3.52-6.8,5.08-23.91,16.49,8.54-16.31,10.69-20.64,13.83-25,3.82-5.33,10.92-7.69,14.6-5,4.89,3.63-1,10-4.52,13.51-2.21,2.16,2.13-2.27,0,0Z"/><path class="cls-1" d="M49.05,75.73c-7.92-9.09-17.29-17.57-28.54-22.27C33,56.88,43.5,66.31,51.75,76,59,84.59,67.94,96.2,70.36,107.72a17.28,17.28,0,0,1,.36,1.9C67.19,97.25,57.35,85.27,49.05,75.73Zm21.88,29.71a27.75,27.75,0,0,1,.5,3c-6-20.52-17.74-40.54-35.22-53.31,18,9.22,31.08,30.5,34.72,50.32ZM55.49,65.59c9.46,10,16.64,26.19,16,40.27,0,.43,0,.94-.08,1.62-1.55-14.6-8.21-29.56-15.94-41.89ZM72,105.86c-.62-14.08,6.56-30.29,16-40.27-7.73,12.33-14.39,27.29-16,41.89-.06-.68-.07-1.19-.08-1.62Zm35.3-50.74c-17.48,12.77-29.2,32.79-35.22,53.31.25-1.82.42-2.7.5-3,3.64-19.82,16.69-41.1,34.72-50.32ZM94.43,75.73c-8.3,9.54-18.13,21.52-21.66,33.89a17.94,17.94,0,0,1,.35-1.9C75.55,96.2,84.46,84.59,91.73,76,100,66.31,110.45,56.88,123,53.46c-11.25,4.7-20.63,13.18-28.55,22.27ZM31.2,48.94A81.13,81.13,0,0,0,0,50c30.29,12,61.18,36.33,71.67,68.23a15.65,15.65,0,0,1,.48,1.56c.45-1.4.47-1.56.47-1.56C83.11,86.28,114,62,144.29,50a81.12,81.12,0,0,0-31.2-1c-19.56,3.17-34.65,15.43-40.94,34.2-6.3-18.77-21.39-31-40.95-34.2Z"/></g></g></svg>