<svg id="pinterest" fill="#294a66" xmlns="http://www.w3.org/2000/svg" width="40" height="40" viewBox="0 0 40 40">
  <metadata><?xpacket begin="﻿" id="W5M0MpCehiHzreSzNTczkc9d"?>
<x:xmpmeta xmlns:x="adobe:ns:meta/" x:xmptk="Adobe XMP Core 5.6-c142 79.160924, 2017/07/13-01:06:39        ">
   <rdf:RDF xmlns:rdf="http://www.w3.org/1999/02/22-rdf-syntax-ns#">
      <rdf:Description rdf:about=""/>
   </rdf:RDF>
</x:xmpmeta>
                                                                                                    
                                                                                                    
                                                                                                    
                                                                                                    
                                                                                                    
                                                                                                    
                                                                                                    
                                                                                                    
                                                                                                    
                                                                                                    
                                                                                                    
                                                                                                    
                                                                                                    
                                                                                                    
                                                                                                    
                                                                                                    
                                                                                                    
                                                                                                    
                                                                                                    
                                                                                                    
                           
<?xpacket end="w"?></metadata>
<defs>
    <style>
      .cls-1 {
        fill: #fafafa;
      }

      .cls-2 {
        fill-rule: evenodd;
      }
    </style>
  </defs>
  <circle id="ellipse_4" data-name="ellipse 4" class="cls-1" cx="20" cy="20" r="20"/>
  <path id="pinterest-2" data-name="pinterest" class="cls-2" d="M324,6075.97a12,12,0,0,0-4.751,23.02,10.7,10.7,0,0,1,.211-2.74c0.233-.97,1.551-6.56,1.551-6.56a4.639,4.639,0,0,1-.385-1.91c0-1.78,1.035-3.11,2.322-3.11a1.613,1.613,0,0,1,1.626,1.81,25.971,25.971,0,0,1-1.065,4.27,1.865,1.865,0,0,0,1.9,2.32c2.28,0,3.816-2.93,3.816-6.4,0-2.64-1.775-4.62-5.009-4.62a5.709,5.709,0,0,0-5.931,5.77,3.463,3.463,0,0,0,.8,2.36,0.58,0.58,0,0,1,.172.67c-0.059.22-.189,0.76-0.244,0.97a0.414,0.414,0,0,1-.6.3c-1.681-.69-2.467-2.53-2.467-4.6,0-3.42,2.886-7.52,8.608-7.52,4.6,0,7.625,3.32,7.625,6.89,0,4.73-2.627,8.26-6.5,8.26a3.441,3.441,0,0,1-2.941-1.5s-0.7,2.77-.848,3.31a10.206,10.206,0,0,1-1.191,2.55A12,12,0,1,0,324,6075.97Z" transform="translate(-304 -6068)"/>
</svg>
