<svg xmlns="http://www.w3.org/2000/svg" viewBox="0 0 955.72 214.17"><defs><style>.cls-1{fill:none;}.cls-2{fill:#577882;}.cls-3{fill:#bccdcc;}</style></defs><g id="Layer_2" data-name="Layer 2"><g id="Layer_1-2" data-name="Layer 1"><g id="top_pattern" data-name="top pattern"><path class="cls-1" d="M480.08,88.63c-6,20.52-17.74,40.55-35.22,53.31,18-9.22,31.08-30.5,34.72-50.32A25.14,25.14,0,0,0,480.08,88.63Z"/><path class="cls-1" d="M480.08,89.59c-1.55,14.6-8.22,29.55-15.94,41.88,9.46-10,16.64-26.19,16-40.27C480.16,90.77,480.14,90.26,480.08,89.59Z"/><path class="cls-1" d="M480.62,91.2c-.62,14.08,6.56,30.29,16,40.27-7.72-12.33-14.39-27.28-15.94-41.88C480.64,90.26,480.62,90.77,480.62,91.2Z"/><path class="cls-1" d="M460.4,121.1c7.27-8.63,16.18-20.24,18.61-31.75a18.32,18.32,0,0,0,.36-1.9c-3.53,12.36-13.37,24.34-21.67,33.88-7.92,9.09-17.29,17.57-28.54,22.27C441.68,140.18,452.15,130.75,460.4,121.1Z"/><path class="cls-1" d="M481.41,87.45c.14.9.26,1.51.36,1.9,2.43,11.51,11.34,23.12,18.61,31.75,8.25,9.65,18.72,19.08,31.24,22.5-11.24-4.7-20.62-13.18-28.54-22.27C494.78,111.79,485,99.81,481.41,87.45Z"/><path class="cls-1" d="M480.7,88.63a27.75,27.75,0,0,0,.5,3c3.64,19.82,16.69,41.1,34.72,50.32C498.44,129.18,486.72,109.15,480.7,88.63Z"/><path class="cls-1" d="M564.94,90.62c-5.9,7.48-1.09,18.95,6.36,23.29-13.48-4.36-27.15-11.88-32.38-25.84-1.22,8.11,3.5,15.75,9.52,20.73C528.58,101.32,507,87.52,502,65.38c-1.2,22.73,21.14,39.69,40.11,46.87-15-4.4-29.2-12.68-38.93-25.13-10.35-13.28-13.92-30-12.52-46.64-7.14,25,3.06,50.34,24,65.07s49.69,18,73.71,9.82C576.91,116.63,565.34,108.08,564.94,90.62Z"/><path class="cls-1" d="M441,105.55C462,90.82,472.16,65.44,465,40.48c1.38,16.6-2.18,33.36-12.53,46.64-9.73,12.45-23.93,20.73-38.93,25.13,19-7.18,41.31-24.14,40.11-46.87-4.95,22.14-26.54,35.94-46.39,43.42,6-5,10.73-12.62,9.51-20.73-5.23,14-18.9,21.48-32.38,25.84,7.45-4.34,12.26-15.81,6.36-23.29-.4,17.46-12,26-23.47,24.75C391.33,123.5,420.12,120.25,441,105.55Z"/><path class="cls-2" d="M389.05,2.73a37.21,37.21,0,0,1-1.14,12.65,40.54,40.54,0,0,1-11,18.21,20.63,20.63,0,0,0,2.16-7.1,76.62,76.62,0,0,0-.12-8.3c0-4.07,2.15-7.65,4.44-10.85A1,1,0,0,0,383,6c-9-4.27-18,1-22.88,8.91-2.95,4.85-3.77,10.45-4.49,16-.12.86-.56,4.65-1.42,8.28,0-3.85-2.25-7.34-6.84-6.29a1,1,0,0,0-.42,1.6c1.56,2,2,8.76-.39,10.84-11.52-.78-22.65-6.69-31.82-13.45-11.48-8.45-21.24-19-31.4-29-14.9.76-30.57,0-45.44-.1A14.66,14.66,0,0,0,231,14.47c-.16,11.11,13.17,11.42,13.19,4.76h0c0-.07.09-.15.13-.23.42-1-1-1.4-1.75-.72C240.23,20.34,238,17.37,238,17c.16-8.25,11.1-8.25,16.9-.1,3.18,4.46,7.11,1.77,11,.89-6.3,5.75-11.37,16.47-3.07,22.56,6.17,4.53,14.6,1.88,14.49-6.37a1,1,0,0,0-1.89-.26c-.83,3.57-4.6,6.44-8,3.6-3.79-3.19-.75-9.31,1.73-12.1,3.14-3.58,11.77-7.11,21.74,5.21l.08.08c20.41,17.8,49.83,30.12,75.43,17.19C380.24,46,386.48,63,378.37,63c-4.41-1.2-8,5.4-3.54,9.21,5,4.26,13.23.09,14.51-5.43,3.49-15.19-6-22.15-16.12-23.11,10.8-7.73,18.64-19.7,19.67-33.17a39.06,39.06,0,0,0-.17-7.72Z"/><path class="cls-2" d="M210.25,2.73H207a6.76,6.76,0,0,0-.5,2.07C208.31,5.62,209,3.85,210.25,2.73Z"/><path class="cls-2" d="M177.26,19.18c1.16.57,3.54,1.71,3.64,1.8a61,61,0,0,0,7.92-14c3.1,8.56,12.16,15.59,21.47,13.24,6.23-1.54,11.92-8.89,9.05-15.4a7,7,0,0,0-1.44-2.05h-3c3.09,1.86,3.49,5.94,2,9.19-3.81,8.07-14.07,6.7-19.74,1.6-3.88-3.48-5.92-7.16-6.57-10.79h-3.24C183.92,10.52,180.81,15.34,177.26,19.18Z"/><path class="cls-2" d="M478.4,27.24a123.34,123.34,0,0,1,6-24.1q-6.51,0-13-.13A108.94,108.94,0,0,1,478.4,27.24Z"/><path class="cls-2" d="M475,28a104,104,0,0,1-7.59-25c-7.83-.1-15.63-.2-23.34-.22C449.64,9,462.8,13.8,475,28Z"/><path class="cls-2" d="M488.85,3.17A103.53,103.53,0,0,1,481.31,28C493.4,13.91,506.45,9.09,512.1,2.9,504.41,3.12,496.65,3.19,488.85,3.17Z"/><path class="cls-2" d="M640.38,78.84c-10.27,24.33-33.41,52.84-86.18,46.72-2.88-.33-7.16.92-9.06,3.49-3.25,4.36,1.66,9.58,5.24,11.91C557,145.24,627.18,145.13,640.38,78.84Z"/><path class="cls-2" d="M719.65,78.15c-5.29,1.93-14.6,14.32-31.23,6.91,6.74,8.88,14.89,10.88,18.12,10.6,4-.36,7.17-2.7,10.45-4.92,5.5-3.71,12.11-6.21,18.74-4.3a1,1,0,0,0,1.2-1.28C733.65,77.74,727.2,75.39,719.65,78.15Z"/><path class="cls-2" d="M828,49c1.11,9-6.18,12.5-7.77,6.15-.23-.92-1.33-1.29-1.77-.48-2.34,4.31-1.81,10.32,3,11.3-3.75,3.14-11.54,5.67-8.86,11-4.62,1.12-5.74-3.49-10-4.68a11.46,11.46,0,0,0-5.7-.25c-3.66.74-6.63-.39-7.37-4.38-.06-5.85,4.72-11.37,11-9.67a5.34,5.34,0,0,1,3.61,4.12c-5.76-.77-5.6,4.94-3.63,5.89,7.55,1.43,6.49-8.6,1.73-11.1C796.05,53.6,789,59,788.09,65.23a17.58,17.58,0,0,0-.13,4.13.76.76,0,0,0,0,.36C789.39,82,804.54,86.49,815.48,82c12.34-5,18.18-16.55,15.49-33.37C829.67,48.76,829,48.9,828,49Z"/><path class="cls-2" d="M748,6.53l0,.35Z"/><path class="cls-2" d="M713.77,56.36c-5.59,4.44-11.82,9.53-19.06,10.78a16.75,16.75,0,0,0,2.19,0c12.92-.71,25.74-13.46,34.94-21.06,11.18-9.24,23.54-22.15,38.38-24.93-14.18-.58-27.68,11.22-37.94,19.63C726,45.89,720,51.28,713.77,56.36Z"/><path class="cls-2" d="M601.71,137.61c-6.14,3-12.64,4.65-19.21,6.41-4,1.07-15.32,4.28-14.83,10,.57,6.86,14,4.81,17.87,3.63,13.61-4.17,24-16.81,29.5-29.31C613.52,132.16,605.1,136,601.71,137.61Z"/><path class="cls-2" d="M585.54,157.66Z"/><path class="cls-2" d="M610.44,143.51a.38.38,0,0,0,0-.24C610.47,143.35,610.45,143.43,610.44,143.51Z"/><path class="cls-2" d="M606.4,149a48,48,0,0,0-4.48,7.89c-.88,2.09-1.95,6.39.11,8.23s4.17-2.79,4.94-4.8c-.2.62-.32,1,.25-.68l.1-.34c1.53-5.07,2.11-10.6,3.12-15.82C610,144.61,606.73,148.53,606.4,149Z"/><path class="cls-2" d="M952.78,5.9c-2.22-.65-5.22.49-6.73,1.94C918.35,34.36,893,28.58,877.75,17,912.29,53,953,20.38,954.94,15,956,12.13,956.55,7,952.78,5.9Z"/><path class="cls-2" d="M481.16,124.24c-6.17,15-12.33,30.19-16.62,45.82-2.65,9.68-2,19.73,8.21,25,12.26,6.3,28.24-2.69,27.65-16.89-.42-10.22-6.13-21.34-9.77-30.71Q486.09,135.75,481.16,124.24Z"/><path class="cls-2" d="M500.4,178.13c.42,10.06-.41-10,0,0Z"/><path class="cls-2" d="M518,157.86c-3.4-3.53-6.8-5.09-23.9-16.49,8.54,16.3,10.69,20.63,13.83,25,3.82,5.33,10.91,7.69,14.59,5C527.45,167.73,521.57,161.33,518,157.86Z"/><path class="cls-2" d="M445.31,157.86c-3.54,3.47-9.42,9.87-4.52,13.5,3.68,2.73,10.77.37,14.59-5,3.15-4.4,5.29-8.73,13.83-25C452.11,152.77,448.71,154.33,445.31,157.86Z"/><path class="cls-2" d="M480.46,78.88s-.11-.27-.47-1.56c-.45,1.4-.48,1.56-.48,1.56-10.49,31.9-41.38,56.19-71.67,68.23a81.13,81.13,0,0,0,31.2,1C458.6,145,473.69,132.69,480,113.93c6.29,18.76,21.38,31,40.94,34.19a81.12,81.12,0,0,0,31.2-1C521.84,135.07,491,110.78,480.46,78.88Zm-51.3,64.72c11.25-4.7,20.62-13.18,28.54-22.27,8.3-9.54,18.14-21.52,21.67-33.88a18.32,18.32,0,0,1-.36,1.9c-2.43,11.51-11.34,23.12-18.61,31.75C452.15,130.75,441.68,140.18,429.16,143.6Zm15.7-1.66c17.48-12.76,29.2-32.79,35.22-53.31a25.14,25.14,0,0,1-.5,3C475.94,111.44,462.89,132.72,444.86,141.94Zm19.28-10.47c7.72-12.33,14.39-27.28,15.94-41.88.06.67.08,1.18.08,1.61C480.78,105.28,473.6,121.49,464.14,131.47ZM480.62,91.2c0-.43,0-.94.08-1.61,1.55,14.6,8.22,29.55,15.94,41.88C487.18,121.49,480,105.28,480.62,91.2Zm.58.42a27.75,27.75,0,0,1-.5-3c6,20.52,17.74,40.55,35.22,53.31C497.89,132.72,484.84,111.44,481.2,91.62Zm50.42,52c-12.52-3.42-23-12.85-31.24-22.5-7.27-8.63-16.18-20.24-18.61-31.75-.1-.39-.22-1-.36-1.9,3.54,12.36,13.37,24.34,21.67,33.88C511,130.42,520.38,138.9,531.62,143.6Z"/><path class="cls-2" d="M603.68,69.8c.55-.85,0-1.73-.91-1.6-3.72.57-6.93,1.27-9.14,4.49-2.06,3-.44,8.3,1.43,11,3.85,5.48,16.83,14.63,33.41-1.62a74,74,0,0,0,9.19-20.84C619.69,98.82,596.36,81,603.68,69.8Z"/><path class="cls-2" d="M639.7,51.05s0,0,0,0c0-.26.07-.55.11-.83A.81.81,0,0,0,639.7,51.05Z"/><path class="cls-2" d="M667.7,84.94c.64-.19,1.61-1,.92-1.36-7.38-3.75-17.7-9-24.71-22-.45-.82-2.22-.49-1.82.34,10.53,22.26-2.84,37.39-7.48,45.45-12.47,16.71-28.94,32.23-18.44,53.2a24.23,24.23,0,0,0,1.44,2.51,41.76,41.76,0,0,1-5.31,30.55C606,203.68,594.36,212.53,581.88,210c-10.23-2.08-22-13.74-14.87-24.6,3.18-4.88,10.23-7.57,14.3-2.05,1.57,2.13,1.22,5.9-1.65,6.85-4.82,1.58-2.55-5.14-1.21-3-.89-1.88-4.15,1.56-1.19,3.44,3.14,2,6.38-1.75,6.48-4.71.41-8.63-11.11-9.3-16.14-5.29-12.23,9.74-3.55,25.93,8,31.22,13.33,6.13,27.22-.66,35.79-11.31a41.57,41.57,0,0,0,8-35.11c7.94,9.8,22.89,15.31,32.11,3.85,4.17-5.16,5-12.75-.76-17.16-7.36-5.66-16.08,5.3-8.9,7.85,1.45-1.91-1.72-2.58-.48-4.76a4.52,4.52,0,0,1,6.7-1.34c5.48,3.77,3.37,10.67-.78,14.46-10.22,9.32-24.35.47-30.15-9.91-.25-.5-.53-1.06-.86-1.66a23.74,23.74,0,0,1-.89-2.21c-5-14.74,6.06-29.17,14.63-40.1,1-1.32,2.13-2.7,3.25-4.13,6.33-9.07,17.87-5.15,16.6-14.42,2.37,4.95,5.47-1.38,3.13-6.81,5.57,2.21-1.13-9-1-9C656.38,86.25,661.1,87,667.7,84.94Z"/><path class="cls-2" d="M820,1.49a13.08,13.08,0,0,1-5.24,7.67A20.26,20.26,0,0,1,792,9.4c4.76,1.42,4.29-1.19,9.64.11a26.31,26.31,0,0,1-7.9-8H779c7.41,8.82,16,15.09,29.85,12.23A17.55,17.55,0,0,0,822,1.49Z"/><path class="cls-2" d="M830.39,3.72c3.68,1.45,8.6.79,11.11-2.21H826.78A11.83,11.83,0,0,0,830.39,3.72Z"/><path class="cls-2" d="M877.62,1.56h-4.1c10.1,16,25.38,21.06,41.54,16.12,8.59-2.62,17.63-8.87,26.76-16h-7.26C915.28,15.82,895.6,23.84,877.62,1.56Z"/><path class="cls-2" d="M852.24,9.8c-4.3-2.86-8.75.76-12.41,4.17a.94.94,0,0,0,.67,1.61c6.4.17,5.33,9.16,3.07,12.87a25.39,25.39,0,0,1-7.51,7.69c-9.07,3.43-20.31,4.15-32.5-1.27-5.21-2.35-10.54-4.48-15.3-7.59h0c-1.78.64-3.1,1.62-5.26,2.47,9.09,8.17,20.7,13.17,32.81,15.9A46.44,46.44,0,0,0,836,45.52c4.51-.21,9-1.17,13.54-.91a80,80,0,0,0,14.35,0c8.91-1.06,14.5-8.22,22.78-10.72a1,1,0,0,0,.57-1.4c-3.08-6.21-10.16-6.61-16.08-4.31-4.61,1.8-8.74,4.54-13.2,6.61,7.18-6,12.36-13.8,13.84-22.46a43.86,43.86,0,0,0,.5-10.76l-19,0C853,4.27,852.45,7,852.24,9.8Z"/><path class="cls-3" d="M826.26,38.1a29.27,29.27,0,0,1,3.12-.76,42.77,42.77,0,0,0-24.27-17.46A41.05,41.05,0,0,0,776,22.3a.35.35,0,0,0,0,.08c-15.72,6.32-30.32,19-42.28,28.38-11.53,9-24,18.2-38.32,22.35a51.66,51.66,0,0,1-15,2.11,22.66,22.66,0,0,0,11.15-9.46c4.61-7.19.48-22.81-12-20.86a8.9,8.9,0,0,0-6.45,4.36c-2.25,4.17.55,11.19,6.11,9-.32-1.82-.82-1.38-2.1-1.25-2.83.3-4-3-3.41-5.27.77-3.22,16.87-6.14,14.34,9.09a12,12,0,0,1-5.86,9.27c-4.91,2.76-6-1.86-9.22-3.29s-6.85.93-9.89-.51c6.5-2.27,3.84-14.13-1.68-11-.8.43-.49,1.86.48,1.76-2.61,2.62-4.57,2.84-5.93.73a13.65,13.65,0,0,0-1.86-1.7,10.61,10.61,0,0,0-2.36-1.35c-2.42-1.14-5.6-.19-7.86-1.2a4.38,4.38,0,0,1-2.35-2.91,1,1,0,0,0-1.69-.3c0,.28-.08.57-.11.83a82.12,82.12,0,0,1-2.06,10.1A74,74,0,0,1,628.47,82a62.21,62.21,0,0,1-40.38,27.74c-.88.19-1.77.34-2.67.49a14.41,14.41,0,0,1-5-.4,13.43,13.43,0,0,1-8.82-8.51c-1.27-3.88-1.58-8.66,1.53-11.86s7.25-4.43,10-.13c.7,1,2.3.09,1.64-.95-4.33-6.11-7.43-9.39-15.61-7.87a17.87,17.87,0,0,0-10.82,6.06c-2,2.38-1.5,5.19-2.4,8-1,3.09-4.87-4.39-5.14-5-.85-1.89-1.56-3.85-2.49-5.72-1.54-3-3.79-6.45-7.29-7.48-6.93-2-10.68,4.1-11.67,10.11-11.27.12-10.36-15-13.5-22.61-2.42-6-7.54-10-10.2-15.77a28.94,28.94,0,0,1-3-14.69C509,21.7,521.9,15.16,535.15,16.19c11.67,1.6,23.53,15.14,16.71,27.19-2.91,5.14-11,8.9-16.24,4.77A7.85,7.85,0,0,1,532.71,41c.47-3.83,5-2.7,5.35-5.39,0-.17,0-.32.06-.5-6.67-1.23-9.67,6.17-7.77,11.5,2.46,6.88,10.2,8.82,16.67,7,15.92-4.53,15.86-25.11,7.3-36.23-9-11.63-25.07-13.53-38.4-9.4a45.43,45.43,0,0,0-29.37,28.71c-9.9,29.37,6.26,61.12,31.92,76.14,25.36,14.85,61.58,15.59,87.36,1.45A68.46,68.46,0,0,0,634.2,84.78a74,74,0,0,0,6.35-19.19,90.69,90.69,0,0,0,1.26-9.86c6.49,15.52,28,24.25,34.36,25.72a8.85,8.85,0,0,1,3.45,5.16c1.52,6.43-.63,12.87-6.91,15.82-5.75,2.72-15.46-2.71-11.16-9.64,1.56-2.49,5.5-3.86,7.54-1.12,2.3,3.12-2.27,3.29-.84,6,7-1.69.27-13.15-6.62-7-7.73,6.88.87,17.67,10.47,15.86a15,15,0,0,0,10-6.49c1.87,5,5.62,9.82,11.37,6.84a1,1,0,0,0,0-1.64c-5.54-3.37-.48-8.88-2.8-13.48-1.49-2.93-5.16-4.4-6.89-7a14.43,14.43,0,0,0-.93-2.18c16.58,1.48,33.9-5.09,48.77-14.61,11.65-7.55,21.94-16.69,32.65-25.53C780.38,29.07,789.1,24,799.4,23.69,808.52,23.43,819.27,29.23,826.26,38.1ZM514.7,105.55c-20.94-14.73-31.14-40.11-24-65.07-1.4,16.6,2.17,33.36,12.52,46.64,9.73,12.45,23.93,20.73,38.93,25.13-19-7.18-41.31-24.14-40.11-46.87,4.95,22.14,26.54,35.94,46.4,43.42-6-5-10.74-12.62-9.52-20.73,5.23,14,18.9,21.48,32.38,25.84-7.45-4.34-12.26-15.81-6.36-23.29.4,17.46,12,26,23.47,24.75C564.39,123.5,535.6,120.25,514.7,105.55Z"/><path class="cls-3" d="M880.12,1.57c9,13,28.25,15.12,48.46.07Z"/><path class="cls-2" d="M616.49,36.29a20.7,20.7,0,0,0,3.72-.27c18.8-2.48,34.36-21.77,46.92-34.25l-5.28,0C649,15.39,635,33,616.49,36.29Z"/><path class="cls-2" d="M605,2.4c-2.84,2.15-8,2.68-10.55-.07l-2,0A6.21,6.21,0,0,0,595.11,5c4.56,2.34,9.59.71,12.64-2.83l-2.56,0Z"/><path class="cls-2" d="M758.62,13.52c-5.67,5.1-15.93,6.47-19.74-1.6-1.71-3.67-1-8.41,3.31-9.8,4.13-1.34,4.15,4,7,2.68a5.53,5.53,0,0,0-1.27-3.29h-8.62a7.73,7.73,0,0,0-2.92,3.26c-2.88,6.51,2.81,13.86,9,15.4,9.31,2.35,18.37-4.68,21.47-13.24a60.72,60.72,0,0,0,7.93,14c.08-.09,2.47-1.23,3.63-1.8-3.72-4-7-9.11-10.51-17.58,0,0,0-.07,0-.11h-2.58C765,5.52,762.94,9.64,758.62,13.52Z"/><path class="cls-2" d="M739.31,1.52h8.62C746-.71,742.12-.3,739.31,1.52Z"/><path class="cls-2" d="M711.63,1.59h3.17A7.87,7.87,0,0,0,711.63,1.59Z"/><path class="cls-2" d="M711.58,1.6h0q-19.05.06-38.1.14C662.92,12.11,652.87,23.14,641,31.89c-9.17,6.76-20.3,12.67-31.82,13.45-2.42-2.08-1.95-8.86-.39-10.84a1,1,0,0,0-.42-1.6c-4.58-1-6.8,2.44-6.83,6.29a82.27,82.27,0,0,1-1.43-8.28c-.72-5.52-1.54-11.12-4.49-16C590.74,7,581.75,1.76,572.71,6a1,1,0,0,0-.35,1.31c2.29,3.2,4.48,6.78,4.44,10.85a74.15,74.15,0,0,0-.11,8.3,20.19,20.19,0,0,0,2.15,7.1,40.54,40.54,0,0,1-11-18.21,37.23,37.23,0,0,1-1.13-12.74l-3.68,0a39.46,39.46,0,0,0-.17,7.76c1,13.47,8.87,25.44,19.67,33.17-10.09,1-19.61,7.92-16.12,23.11,1.27,5.52,9.54,9.69,14.51,5.43,4.44-3.81.87-10.41-3.54-9.21-8.11.06-1.87-16.92,11.89-15.24,25.6,12.93,55,.61,75.43-17.19l.08-.08c10-12.32,18.6-8.79,21.74-5.21C689,28,692,34.14,688.22,37.33c-3.37,2.84-7.14,0-8-3.6a1,1,0,0,0-1.89.26c-.11,8.25,8.32,10.9,14.49,6.37,8.3-6.09,3.23-16.81-3.06-22.56,3.91.88,7.83,3.57,11-.89,5.8-8.15,16.76-8.15,16.91.1,0,.36-2.22,3.33-4.57,1.27-.77-.68-2.17-.32-1.75.72,0,.08.1.16.13.23h0c0,6.66,13.34,6.35,13.18-4.76-.08-5.67-4.57-11.85-9.89-12.89h-3.22Z"/><path class="cls-2" d="M410.58,129.05c-1.9-2.57-6.18-3.82-9.06-3.49-52.77,6.12-75.9-22.39-86.18-46.72,13.2,66.29,83.37,66.4,90,62.12C408.92,138.63,413.83,133.41,410.58,129.05Z"/><path class="cls-2" d="M267.3,85.06c-16.63,7.41-25.94-5-31.23-6.91-7.55-2.76-14-.41-17.28,7a1,1,0,0,0,1.2,1.28c6.62-1.91,13.24.59,18.74,4.3,3.28,2.22,6.4,4.56,10.45,4.92C252.42,95.94,260.56,93.94,267.3,85.06Z"/><path class="cls-2" d="M167.63,65.23c-.87-6.21-8-11.63-14.14-8.38-4.76,2.5-5.82,12.53,1.73,11.1,2-1,2.13-6.66-3.63-5.89a5.34,5.34,0,0,1,3.61-4.12c6.26-1.7,11,3.82,11,9.67-.74,4-3.71,5.12-7.36,4.38a11.54,11.54,0,0,0-5.72.25c-4.28,1.19-5.4,5.8-10,4.68,2.69-5.33-5.1-7.86-8.85-11,4.82-1,5.35-7,3-11.3-.44-.81-1.54-.44-1.77.48-1.59,6.35-8.89,2.86-7.77-6.15-1-.05-1.64-.19-2.93-.28C122.06,65.49,127.9,77,140.24,82c10.94,4.45,26.1,0,27.49-12.32a.9.9,0,0,0,0-.36A17.58,17.58,0,0,0,167.63,65.23Z"/><path class="cls-2" d="M223.44,40.77c-10.26-8.41-23.76-20.21-37.94-19.63,14.84,2.78,27.19,15.69,38.39,24.93,9.19,7.6,22,20.35,34.93,21.06a16.75,16.75,0,0,0,2.19,0c-7.23-1.25-13.47-6.34-19.06-10.78C235.68,51.28,229.68,45.89,223.44,40.77Z"/><path class="cls-2" d="M370.18,157.66Z"/><path class="cls-2" d="M388.06,154c.48-5.73-10.86-8.94-14.84-10-6.57-1.76-13.07-3.36-19.21-6.41-3.38-1.66-11.81-5.45-13.33-9.26,5.55,12.5,15.88,25.14,29.5,29.31C374,158.84,387.48,160.89,388.06,154Z"/><path class="cls-2" d="M345.28,143.51c0-.08,0-.16,0-.24A.38.38,0,0,0,345.28,143.51Z"/><path class="cls-2" d="M353.69,165.15c2.06-1.84,1-6.14.11-8.23a48,48,0,0,0-4.48-7.89c-.33-.5-3.62-4.42-4-5.52,1,5.22,1.6,10.75,3.12,15.82,0-.07,0,0,.1.34.57,1.69.45,1.3.24.67C349.52,162.35,351.63,167,353.69,165.15Z"/><path class="cls-2" d="M78,17C62.76,28.58,37.38,34.36,9.68,7.84,8.17,6.39,5.16,5.25,3,5.9-.82,7-.27,12.13.77,15,2.72,20.38,43.43,53,78,17Z"/><path class="cls-2" d="M360.66,83.64c1.87-2.65,3.49-8,1.43-11-2.21-3.22-5.42-3.92-9.14-4.49-.93-.13-1.46.75-.91,1.6,7.32,11.2-16,29-34-8.62A74,74,0,0,0,327.25,82C343.83,98.27,356.81,89.12,360.66,83.64Z"/><path class="cls-2" d="M316,51.05a.81.81,0,0,0-.13-.8c0,.28.08.57.11.83C316,51.07,316,51.07,316,51.05Z"/><path class="cls-2" d="M388.12,180.63c-5-4-16.54-3.34-16.14,5.29.1,3,3.34,6.7,6.48,4.71,3-1.88-.3-5.32-1.19-3.44,1.34-2.13,3.61,4.59-1.21,3-2.87-.95-3.22-4.72-1.65-6.85,4.07-5.52,11.12-2.83,14.3,2.05,7.08,10.86-4.64,22.52-14.87,24.6-12.48,2.53-24.11-6.32-30.42-16.38a41.76,41.76,0,0,1-5.31-30.55,24.23,24.23,0,0,0,1.44-2.51c10.51-21-6-36.49-18.44-53.2-4.64-8.06-18-23.19-7.47-45.45.39-.83-1.38-1.16-1.82-.34-7,13-17.34,18.26-24.72,22-.69.35.29,1.17.92,1.36,6.6,2,11.32,1.31,15.8-4.81.09-.08-6.61,11.17-1,9-2.34,5.43.76,11.76,3.13,6.81-1.27,9.27,10.27,5.35,16.6,14.42,1.12,1.43,2.22,2.81,3.25,4.13,8.57,10.93,19.63,25.36,14.63,40.1a23.74,23.74,0,0,1-.89,2.21c-.33.6-.61,1.16-.86,1.66-5.8,10.38-19.93,19.23-30.15,9.91-4.15-3.79-6.26-10.69-.78-14.46a4.52,4.52,0,0,1,6.7,1.34c1.24,2.18-1.93,2.85-.48,4.76,7.19-2.55-1.54-13.51-8.9-7.85-5.73,4.41-4.92,12-.77,17.16,9.23,11.46,24.18,5.95,32.12-3.85a41.57,41.57,0,0,0,8,35.11c8.57,10.65,22.46,17.44,35.79,11.31C391.67,206.56,400.35,190.37,388.12,180.63Z"/><path class="cls-2" d="M161.11,2.84a26.56,26.56,0,0,1-7,6.67c5.35-1.3,4.88,1.31,9.64-.11a20.26,20.26,0,0,1-22.85-.24A13,13,0,0,1,136,2.6l-1.86.1a17.63,17.63,0,0,0,12.68,11C159.88,16.4,168.27,11,175.39,3,170.63,3.07,165.87,3,161.11,2.84Z"/><path class="cls-3" d="M294.09,90.62c-6.89-6.14-13.63,5.32-6.62,7,1.43-2.67-3.14-2.84-.84-6,2-2.74,6-1.37,7.54,1.12,4.3,6.93-5.41,12.36-11.16,9.64-6.28-3-8.43-9.39-6.91-15.82a8.85,8.85,0,0,1,3.45-5.16c6.34-1.47,27.87-10.2,34.36-25.72a90.69,90.69,0,0,0,1.26,9.86,73.62,73.62,0,0,0,6.36,19.19,68.38,68.38,0,0,0,28.36,29.45c25.77,14.14,62,13.4,87.36-1.45,25.66-15,41.82-46.77,31.92-76.14A45.41,45.41,0,0,0,439.8,7.93c-13.32-4.13-29.41-2.23-38.4,9.4-8.56,11.12-8.62,31.7,7.29,36.23,6.48,1.83,14.23-.11,16.68-7,1.9-5.33-1.1-12.73-7.77-11.5,0,.18,0,.33.06.5.38,2.69,4.87,1.56,5.35,5.39a7.85,7.85,0,0,1-2.91,7.19c-5.22,4.13-13.33.37-16.24-4.77-6.81-12.05,5-25.59,16.71-27.19,13.25-1,26.18,5.51,32.46,17.23a28.94,28.94,0,0,1-3,14.69c-2.66,5.75-7.78,9.81-10.2,15.77-3.14,7.65-2.23,22.73-13.5,22.61-1-6-4.74-12.12-11.67-10.11-3.5,1-5.75,4.44-7.29,7.48-.93,1.87-1.64,3.83-2.49,5.72-.27.61-4.15,8.09-5.14,5-.9-2.8-.4-5.61-2.4-8a17.87,17.87,0,0,0-10.81-6.06c-8.19-1.52-11.29,1.76-15.62,7.87-.66,1,.94,1.94,1.64.95,2.76-4.3,7-2.95,10,.13s2.8,8,1.52,11.86a13.43,13.43,0,0,1-8.82,8.51,14.41,14.41,0,0,1-5,.4c-.9-.15-1.79-.3-2.67-.49A62.21,62.21,0,0,1,327.25,82a74,74,0,0,1-9.19-20.84A82.12,82.12,0,0,1,316,51.08c0-.26-.07-.55-.11-.83a1,1,0,0,0-1.7.3,4.34,4.34,0,0,1-2.34,2.91c-2.26,1-5.44.06-7.86,1.2A10.61,10.61,0,0,0,301.63,56a13.65,13.65,0,0,0-1.86,1.7c-1.35,2.11-3.32,1.89-5.92-.73,1,.1,1.27-1.33.47-1.76-5.52-3.09-8.18,8.77-1.67,11-3,1.44-6.53-1-9.9.51s-4.31,6-9.22,3.29a12,12,0,0,1-5.86-9.27C265.14,45.56,281.24,48.48,282,51.7c.56,2.24-.57,5.57-3.4,5.27-1.28-.13-1.77-.57-2.1,1.25,5.56,2.23,8.36-4.79,6.11-9a8.92,8.92,0,0,0-6.45-4.36c-12.45-1.95-16.58,13.67-12,20.86a22.66,22.66,0,0,0,11.15,9.46,51.66,51.66,0,0,1-15-2.11C246,69,233.52,59.8,222,50.76,210,41.37,195.42,28.7,179.7,22.38l.05-.08a41.05,41.05,0,0,0-29.14-2.42c-8.93,2.57-17.21,7.41-24.27,17.46a28.7,28.7,0,0,1,3.12.76c7-8.87,17.75-14.67,26.86-14.41,10.3.3,19,5.38,35.16,18.69,10.71,8.84,21,18,32.65,25.53C239,77.43,256.32,84,272.91,82.52A13.5,13.5,0,0,0,272,84.7c-1.73,2.61-5.4,4.08-6.89,7-2.32,4.6,2.74,10.11-2.8,13.48a1,1,0,0,0,0,1.64c5.75,3,9.5-1.81,11.37-6.84a15,15,0,0,0,10,6.49C293.22,108.29,301.82,97.5,294.09,90.62Zm96.69,0c5.9,7.48,1.09,18.95-6.36,23.29,13.48-4.36,27.15-11.88,32.38-25.84,1.22,8.11-3.5,15.75-9.51,20.73,19.85-7.48,41.44-21.28,46.39-43.42,1.2,22.73-21.13,39.69-40.11,46.87,15-4.4,29.2-12.68,38.93-25.13,10.35-13.28,13.91-30,12.53-46.64,7.13,25-3.07,50.34-24,65.07s-49.69,18-73.71,9.82C378.81,116.63,390.38,108.08,390.78,90.62Z"/><path class="cls-2" d="M28.58,2.73C47.6,16,65.87,14.3,74.86,2.61,59.29,2,44.1,3.21,28.58,2.73Z"/><path class="cls-3" d="M22.64,2.73H15.28c8.66,6.69,17.22,12.46,25.38,15,15.76,4.82,30.69.16,40.78-14.95h-4.3C59.88,23,41.1,16,22.64,2.73Z"/><path class="cls-3" d="M125.33,3.72a11.8,11.8,0,0,0,2-1H115.53A10.74,10.74,0,0,0,125.33,3.72Z"/><path class="cls-3" d="M167.48,27.29h0c-4.76,3.11-10.09,5.24-15.31,7.59-12.18,5.42-23.41,4.7-32.49,1.27a25.25,25.25,0,0,1-7.5-7.69c-2.27-3.71-3.33-12.7,3.06-12.87a1,1,0,0,0,.67-1.61c-3.66-3.41-8.11-7-12.41-4.17-.18-2.4-.6-4.73-.91-7.07H83.34a43.05,43.05,0,0,0,.57,9.58C85.39,21,90.57,28.79,97.75,34.77c-4.46-2.07-8.59-4.81-13.2-6.61-5.92-2.3-13-1.9-16.08,4.31a1,1,0,0,0,.57,1.4c8.28,2.5,13.88,9.66,22.78,10.72a80.09,80.09,0,0,0,14.36,0c4.51-.26,9,.7,13.54.91a46.4,46.4,0,0,0,20.21.14c12.11-2.73,23.72-7.73,32.81-15.9C170.59,28.91,169.26,27.93,167.48,27.29Z"/><path class="cls-2" d="M294.75,2.73h-5.2c12.39,12.48,27.63,30.87,46,33.29a20.6,20.6,0,0,0,3.72.27C321.11,33.12,307.36,16.18,294.75,2.73Z"/></g></g></g></svg>