<?xml version="1.0" standalone="no"?>
<!DOCTYPE svg PUBLIC "-//W3C//DTD SVG 1.1//EN" "http://www.w3.org/Graphics/SVG/1.1/DTD/svg11.dtd">
<svg xmlns="http://www.w3.org/2000/svg">
<defs >
<font id="GothicA1" horiz-adv-x="1000" ><font-face
    font-family="Gothic A1 ExtraBold"
    units-per-em="1024"
    panose-1="0 0 0 0 0 0 0 0 0 0"
    ascent="817"
    descent="-207"
    alphabetic="0" />
<glyph unicode=" " glyph-name="space" horiz-adv-x="250" />
<glyph unicode="!" glyph-name="exclam" horiz-adv-x="340" d="M78 -3V161H262V-3H78ZM240 230H101L91 811H249L240 230Z" />
<glyph unicode="&quot;" glyph-name="quotedbl" horiz-adv-x="630" d="M325 558L427 892H584L442 558H325ZM73 558L174 892H331L189 558H73Z" />
<glyph unicode="#" glyph-name="numbersign" horiz-adv-x="812" d="M55 195V306H187L209 479H89V589H224L250 784H381L356 589H509L535 784H667L641 589H757V479H627L605 306H724V195H590L565 2H432L458 195H304L279 2H146L172 195H55ZM319 306H472L495 479H341L319 306Z" />
<glyph unicode="$" glyph-name="dollar" horiz-adv-x="637" d="M43 175L151 225Q216 123 327 123Q373 123 406 150T439 225Q439 251 429 269T394 303T346 328T278 358T199 394Q70 460 70 590Q70 656 116 717T255 796V885H390V795Q449 789 503 743T578 648L467
595Q410 681 322 681Q275 681 246 655T217 589Q217 570 224 555T242 529T274 506T315 486T370 463T433 437Q588 369 588 238Q588 147 534 86T390 6V-77H255V9Q193 16 132 64T43 175Z" />
<glyph unicode="%" glyph-name="percent" horiz-adv-x="1106" d="M595 189Q595 278 656 337T818 397Q918 397 980 338T1042 189Q1042 98 979 40T818 -18Q719 -18 657 41T595 189ZM730 189Q730 142 756 116T818 90Q855 90 880 116T906 189Q906 234 881 261T818
288Q781 288 756 262T730 189ZM66 616Q66 704 127 763T289 823Q389 823 450 764T512 616Q512 525 450 467T289 409Q190 409 128 467T66 616ZM200 616Q200 569 226 543T289 517Q327 517 352 544T377 616Q377 662 352 688T289 715Q251 715 226 689T200 616ZM198 -7L762
812H911L345 -7H198Z" />
<glyph unicode="&amp;" glyph-name="ampersand" horiz-adv-x="753" d="M193 218Q193 165 227 135T316 104Q386 104 445 163L283 373Q193 303 193 218ZM46 216Q46 365 213 473L204 485Q194 498 193 500T183 513T172 529T164 545T155 563T150 580T145 599T144 619Q144
703 203 752T363 802Q451 802 511 758T598 647L492 602Q445 681 376 681Q336 681 314 664T292 614Q292 604 297 590T314 556T339 518T374 470T415 417T464 354T517 286Q535 332 548 406L679 384Q660 258 606 170L741 0H568L523 57Q438 -19 316 -19Q189 -19 118
49T46 216Z" />
<glyph unicode="&apos;" glyph-name="quotesingle" horiz-adv-x="393" d="M92 558L194 892H351L209 558H92Z" />
<glyph unicode="(" glyph-name="parenleft" horiz-adv-x="484" d="M129 388Q129 684 315 933L420 871Q418 868 402 841T382 807T363 773T342 733T325 691T307 641T294 589T282 528T275 463T272 388Q272 237 309 128T420 -97L315 -159Q224 -33 177 98T129 388Z" />
<glyph unicode=")" glyph-name="parenright" horiz-adv-x="484" d="M64 -97Q144 24 178 136T213 387Q213 471 202 542T166 674T121 775T64 871L170 933Q255 818 305 688T355 387Q355 223 307 93T170 -159L64 -97Z" />
<glyph unicode="*" glyph-name="asterisk" horiz-adv-x="610" d="M18 434L67 551L246 481L240 673H370L364 481L543 551L592 434L390 377L546 211L435 129L305 313L174 129L64 211L220 377L18 434Z" />
<glyph unicode="+" glyph-name="plus" horiz-adv-x="610" d="M29 333V460H233V668H376V460H581V333H376V117H233V333H29Z" />
<glyph unicode="," glyph-name="comma" horiz-adv-x="389" d="M43 -167L144 167H302L159 -167H43Z" />
<glyph unicode="-" glyph-name="hyphen" horiz-adv-x="610" d="M53 333V460H557V333H53Z" />
<glyph unicode="." glyph-name="period" horiz-adv-x="389" d="M103 0V166H286V0H103Z" />
<glyph unicode="/" glyph-name="slash" horiz-adv-x="426" d="M-17 -58L294 858H443L132 -58H-17Z" />
<glyph unicode="0" glyph-name="zero" horiz-adv-x="610" d="M191 402Q191 104 306 104Q419 104 419 402Q419 700 305 700Q191 700 191 402ZM37 402Q37 500 54 576T97 697T160 772T232 812T305 823Q435 823 504 711T574 402Q574 207 505 94T306 -19Q270 -19 236
-9T165 29T101 103T55 225T37 402Z" />
<glyph unicode="1" glyph-name="one" horiz-adv-x="610" d="M81 553V665H119Q209 665 247 701T286 792V811H416V-8H263V553H81Z" />
<glyph unicode="2" glyph-name="two" horiz-adv-x="610" d="M43 601Q66 704 131 763T301 823Q412 823 482 760T552 588Q552 518 520 462T429 348Q415 334 379 299T323 244T277 189T233 122H549V0H52Q52 50 67 100T103 186T162 267T225 338T296 406Q307 417 313
422Q398 502 398 591Q398 641 371 670T299 700Q200 700 169 563L43 601Z" />
<glyph unicode="3" glyph-name="three" horiz-adv-x="610" d="M28 170L146 213Q192 104 293 104Q346 104 382 138T419 232Q419 287 379 322T275 358Q238 358 199 354V475Q226 473 271 473Q321 473 356 504T391 591Q391 639 362 669T287 700Q204 700 167 587L45
624Q66 713 131 768T295 823Q409 823 476 762T544 605Q544 545 514 497T439 424Q492 405 532 356T573 232Q573 115 498 49T295 -18Q192 -18 121 37T28 170Z" />
<glyph unicode="4" glyph-name="four" horiz-adv-x="610" d="M22 283L370 811H498V285H591V163H498V-6H350V163H22V283ZM161 285H350V487Q350 539 354 587H349Q310 518 299 501L161 285Z" />
<glyph unicode="5" glyph-name="five" horiz-adv-x="610" d="M37 155L160 200Q176 159 209 132T283 104Q341 104 376 144T412 253Q412 318 375 361T282 404Q211 404 158 329L64 365L107 805H522V682H243L221 492Q267 525 333 525Q436 525 500 453T565 257Q565
205 549 158T502 71T415 6T289 -18Q194 -18 131 29T37 155Z" />
<glyph unicode="6" glyph-name="six" horiz-adv-x="610" d="M196 258Q196 185 228 145T311 104Q361 104 392 144T423 258Q423 333 392 373T310 413Q259 413 228 371T196 258ZM42 368Q42 495 71 594T168 758T335 823Q500 823 572 650L455 610Q410 700 335 700Q246
700 209 558Q196 506 193 468Q240 535 331 535Q439 535 507 457T575 259Q575 137 506 60T315 -18Q187 -18 121 68Q42 165 42 368Z" />
<glyph unicode="7" glyph-name="seven" horiz-adv-x="610" d="M47 679V805H563V704Q382 419 285 -6H130Q196 345 389 679H47Z" />
<glyph unicode="8" glyph-name="eight" horiz-adv-x="610" d="M211 591Q211 542 237 512T305 481Q347 481 373 512T399 591Q399 637 374 668T305 700Q261 700 236 669T211 591ZM33 223Q33 302 74 351T169 423Q57 485 57 598Q57 696 128 759T305 823Q412 823 482
760T553 598Q553 486 441 423Q498 398 538 349T578 223Q578 115 502 49T305 -18Q192 -18 113 45T33 223ZM187 231Q187 176 219 140T305 104Q357 104 390 140T424 231Q424 283 391 321T305 360Q252 360 220 322T187 231Z" />
<glyph unicode="9" glyph-name="nine" horiz-adv-x="610" d="M186 549Q186 479 216 438T297 397Q347 397 378 439T409 550Q409 615 379 657T297 700Q246 700 216 658T186 549ZM33 154L153 193Q198 104 272 104Q311 104 339 125T383 183T406 258T415 340Q368 276
276 276Q174 276 105 350T36 548Q36 670 109 746T297 823Q394 823 459 762T547 598Q562 533 562 439Q562 218 490 100T271 -18Q185 -18 121 34T33 154Z" />
<glyph unicode=":" glyph-name="colon" horiz-adv-x="389" d="M103 63V231H286V63H103ZM103 496V664H286V496H103Z" />
<glyph unicode=";" glyph-name="semicolon" horiz-adv-x="389" d="M43 -103L144 231H302L159 -103H43ZM110 496V664H293V496H110Z" />
<glyph unicode="&lt;" glyph-name="less" horiz-adv-x="610" d="M40 324V456L481 788L559 679L180 391L559 101L481 -7L40 324Z" />
<glyph unicode="=" glyph-name="equal" horiz-adv-x="610" d="M53 220V346H557V220H53ZM53 447V575H557V447H53Z" />
<glyph unicode="&gt;" glyph-name="greater" horiz-adv-x="610" d="M128 -7L51 101L428 391L51 679L128 788L570 456V324L128 -7Z" />
<glyph unicode="?" glyph-name="question" horiz-adv-x="632" d="M64 626Q86 711 153 769T322 828Q431 828 499 765T568 597Q568 549 550 511T505 447T452 397T407 339T388 265V228H238V276Q238 325 256 365T300 432T352 483T396 537T414 604Q414 648 390 675T324
702Q240 702 196 583L64 626ZM221 -3V161H404V-3H221Z" />
<glyph unicode="@" glyph-name="at" horiz-adv-x="1019" d="M50 379Q50 583 184 714T530 846Q723 846 846 729T970 436Q970 368 955 314T915 225T858 167T794 134T728 124Q685 124 652 148T609 209H608Q594 177 555 151T467 125Q387 125 333 185T278 345Q278 478
345 553T506 628Q541 628 568 613T610 580L613 621H722L704 295Q701 232 737 232Q778 232 811 285T844 429Q844 567 758 654T530 741Q375 741 276 638T177 379Q177 211 272 114T520 17Q632 17 743 49L765 -49Q659 -87 520 -87Q305 -87 178 42T50 379ZM412 347Q412
305 432 273T486 240Q525 240 556 285T588 436Q588 475 570 498T518 521Q478 521 445 473T412 347Z" />
<glyph unicode="A" glyph-name="A" horiz-adv-x="727" d="M253 309H474L415 499Q395 565 367 661H361Q353 632 337 577T313 499L253 309ZM-4 0L284 805H444L732 0H574L513 190H215L154 0H-4Z" />
<glyph unicode="B" glyph-name="B" horiz-adv-x="724" d="M84 0V805H392Q525 805 589 748T654 591Q654 534 628 492T560 427Q608 408 645 359T682 237Q682 134 616 67T432 0H84ZM233 127H408Q457 127 492 155T528 237Q528 287 496 319T405 351H233V127ZM233 477H380Q434
477 467 502T500 579Q500 677 383 677H233V477Z" />
<glyph unicode="C" glyph-name="C" horiz-adv-x="730" d="M39 403Q39 596 139 709T400 823Q505 823 580 766T691 623L563 581Q498 695 398 695Q304 695 249 616T193 403Q193 268 249 189T398 109Q459 109 507 147T576 241L711 200Q696 162 672 127T611 58T520
3T400 -18Q243 -18 141 94T39 403Z" />
<glyph unicode="D" glyph-name="D" horiz-adv-x="749" d="M84 0V805H329Q514 805 612 701T711 403Q711 339 700 283T662 174T592 84T482 23T329 0H84ZM233 126H313Q433 126 494 192T556 403Q556 552 493 615T315 679H233V126Z" />
<glyph unicode="E" glyph-name="E" horiz-adv-x="660" d="M84 0V805H620V677H233V479H582V353H233V127H630V0H84Z" />
<glyph unicode="F" glyph-name="F" horiz-adv-x="618" d="M84 0V805H604V677H233V466H566V340H233V0H84Z" />
<glyph unicode="G" glyph-name="G" horiz-adv-x="775" d="M39 403Q39 587 139 705T406 823Q458 823 504 808T581 772T639 722T680 670T704 624L576 583Q560 607 548 622T515 656T467 685T407 695Q306 695 250 616T193 403Q193 269 251 189T401 109Q479 109 524
152T577 264Q581 320 581 327H392V455H725V0H623L609 72Q541 -18 396 -18Q243 -18 141 96T39 403Z" />
<glyph unicode="H" glyph-name="H" horiz-adv-x="767" d="M84 0V805H232V477H535V805H684V0H535V350H232V0H84Z" />
<glyph unicode="I" glyph-name="I" horiz-adv-x="315" d="M84 0V805H233V0H84Z" />
<glyph unicode="J" glyph-name="J" horiz-adv-x="568" d="M8 156L130 205Q140 166 167 138T236 109Q284 109 309 146T335 251V805H485V232Q485 113 421 48T240 -18Q145 -18 87 33T8 156Z" />
<glyph unicode="K" glyph-name="K" horiz-adv-x="717" d="M84 0V805H233V460H236L532 805H719L406 452L724 0H545L312 347L233 257V0H84Z" />
<glyph unicode="L" glyph-name="L" horiz-adv-x="603" d="M84 0V805H233V127H592V0H84Z" />
<glyph unicode="M" glyph-name="M" horiz-adv-x="928" d="M84 0V805H265L394 448Q408 408 431 337T462 241H466Q473 261 496 332T536 448L663 805H845V0H698V337Q698 432 714 588H709L646 397L518 42H411L285 397L220 589H215Q232 443 232 337V0H84Z" />
<glyph unicode="N" glyph-name="N" horiz-adv-x="772" d="M84 0V805H237L464 385L551 223H556Q540 340 540 457V805H689V0H536L310 409L221 578H217Q233 467 233 344V0H84Z" />
<glyph unicode="O" glyph-name="O" horiz-adv-x="775" d="M39 402Q39 592 135 707T388 823Q546 823 641 708T737 402Q737 212 642 97T388 -18Q230 -18 135 97T39 402ZM193 402Q193 267 244 188T388 109Q479 109 530 187T582 402Q582 537 531 616T388 695Q297 695
245 616T193 402Z" />
<glyph unicode="P" glyph-name="P" horiz-adv-x="707" d="M84 0V805H402Q531 805 602 736T674 555Q674 439 601 373T405 306H233V0H84ZM233 433H384Q449 433 485 464T521 555Q521 614 486 645T384 677H233V433Z" />
<glyph unicode="Q" glyph-name="Q" horiz-adv-x="775" d="M39 402Q39 592 135 707T388 823Q545 823 641 708T737 402Q737 214 642 98T388 -18Q230 -18 135 97T39 402ZM193 402Q193 267 244 188T388 109Q479 109 530 187T582 402Q582 538 531 616T388 695Q297 695
245 616T193 402ZM354 256L437 331L736 17L654 -56L354 256Z" />
<glyph unicode="R" glyph-name="R" horiz-adv-x="732" d="M233 440H387Q451 440 486 471T521 562Q521 615 486 646T386 677H233V440ZM84 0V805H414Q540 805 607 740T675 574Q675 491 640 441T558 370Q594 344 610 316T636 227Q657 117 726 0H560Q508 86 480 216Q469
266 450 289T388 313H233V0H84Z" />
<glyph unicode="S" glyph-name="S" horiz-adv-x="665" d="M22 178L153 222Q180 173 233 141T347 109Q408 109 445 139T483 215Q483 266 442 296T322 352Q205 391 165 413Q52 476 52 598Q52 699 131 761T338 823Q445 823 520 773T630 645L505 603Q439 695 337 695Q276
695 241 668T206 598Q206 584 209 572T221 550T237 532T260 515T285 502T316 489T348 478T384 467T419 455Q465 440 500 423T568 379T620 312T638 222Q638 108 555 45T343 -18Q232 -18 147 35T22 178Z" />
<glyph unicode="T" glyph-name="T" horiz-adv-x="625" d="M11 677V805H616V677H388V0H239V677H11Z" />
<glyph unicode="U" glyph-name="U" horiz-adv-x="761" d="M80 304V805H230V303Q230 109 381 109Q533 109 533 303V805H683V304Q683 148 608 65T381 -18Q236 -18 158 62T80 304Z" />
<glyph unicode="V" glyph-name="V" horiz-adv-x="680" d="M2 805H163L286 368Q337 161 338 157H343Q394 364 395 368L517 805H679L422 0H258L2 805Z" />
<glyph unicode="W" glyph-name="W" horiz-adv-x="966" d="M13 805H169L242 392Q246 370 254 320T268 229T279 160H284Q319 354 326 392L409 805H557L642 392Q649 356 664 266T683 160H688Q693 192 707 275T726 392L797 805H954L774 0H605L525 407Q490 600 486
625H481Q475 582 460 500T443 407L362 0H193L13 805Z" />
<glyph unicode="X" glyph-name="X" horiz-adv-x="689" d="M4 0L259 413L17 805H191L283 636Q294 615 314 578T343 524H347Q367 562 409 636L501 805H674L432 413L688 0H516L412 184Q357 282 347 299H343Q281 187 279 184L176 0H4Z" />
<glyph unicode="Y" glyph-name="Y" horiz-adv-x="699" d="M-2 805H169L287 571Q327 488 348 445H352Q394 529 414 571L533 805H703L425 326V0H276V326L-2 805Z" />
<glyph unicode="Z" glyph-name="Z" horiz-adv-x="658" d="M30 108L436 677H63V805H621V694L214 127H632V0H30V108Z" />
<glyph unicode="[" glyph-name="bracketleft" horiz-adv-x="484" d="M127 -128V903H397V785H271V-10H397V-128H127Z" />
<glyph unicode="\" glyph-name="backslash" horiz-adv-x="410" d="M-17 858H132L429 -57H280L-17 858Z" />
<glyph unicode="]" glyph-name="bracketright" horiz-adv-x="484" d="M88 -10H214V785H88V903H358V-128H88V-10Z" />
<glyph unicode="^" glyph-name="asciicircum" horiz-adv-x="591" d="M10 498L229 887H362L582 498H433L332 700L297 773H295L259 698L157 498H10Z" />
<glyph unicode="_" glyph-name="underscore" horiz-adv-x="546" d="M6 -7H543V-124H6V-7Z" />
<glyph unicode="`" glyph-name="grave" horiz-adv-x="393" d="M185 558L42 892H199L301 558H185Z" />
<glyph unicode="a" glyph-name="a" horiz-adv-x="598" d="M178 170Q178 141 200 121T261 101Q318 101 358 139T398 239V285Q358 275 296 266Q178 247 178 170ZM32 158Q32 239 93 291T277 361Q373 377 398 384V415Q398 454 370 474T296 495Q204 495 134 419L48
493Q144 607 295 607Q428 607 484 544T541 363V0H402V67Q383 32 340 7T240 -18Q144 -18 88 31T32 158Z" />
<glyph unicode="b" glyph-name="b" horiz-adv-x="640" d="M72 0V831H213V536Q271 607 356 607Q464 607 535 524T607 295Q607 213 584 150T524 52T444 -1T358 -18Q309 -18 269 7T210 67V0H72ZM212 295Q212 206 245 155T336 104Q390 104 425 152T460 295Q460 383
427 434T336 485Q277 485 245 433T212 295Z" />
<glyph unicode="c" glyph-name="c" horiz-adv-x="569" d="M34 294Q34 438 111 522T309 607Q400 607 461 552T537 426L416 393Q405 430 378 457T311 485Q248 485 215 431T181 294Q181 203 218 154T311 104Q355 104 387 134T430 204L551 170Q533 96 466 39T309 -18Q187
-18 111 67T34 294Z" />
<glyph unicode="d" glyph-name="d" horiz-adv-x="640" d="M34 295Q34 441 104 524T286 607Q333 607 369 586T426 535V831H569V0H430V67Q411 32 372 7T285 -18Q238 -18 195 -1T115 52T56 150T34 295ZM181 295Q181 203 214 154T306 104Q361 104 394 155T428 295Q428
380 396 432T306 485Q245 485 213 433T181 295Z" />
<glyph unicode="e" glyph-name="e" horiz-adv-x="612" d="M34 297Q34 440 112 523T310 607Q426 607 503 522T581 300Q581 263 579 245H179Q179 184 216 140T319 96Q365 96 400 119T454 179L573 137Q545 71 479 27T315 -18Q191 -18 113 67T34 297ZM180 344H436Q436
406 403 450T310 494Q250 494 216 450T180 344Z" />
<glyph unicode="f" glyph-name="f" horiz-adv-x="384" d="M24 468V589H111V646Q111 737 157 784T287 831H386V709H308Q280 709 268 692T255 636V589H372V468H255V0H111V468H24Z" />
<glyph unicode="g" glyph-name="g" horiz-adv-x="622" d="M183 306Q183 221 215 175T301 128Q354 128 385 174T416 307Q416 393 385 439T302 485Q247 485 215 438T183 306ZM37 305Q37 443 106 525T283 607Q333 607 367 583T417 530V589H560V85Q560 -82 494 -161T291
-240Q139 -240 57 -124L151 -58Q207 -126 293 -126Q343 -126 377 -88T416 10Q418 42 418 72Q399 43 362 25T287 6Q175 6 106 87T37 305Z" />
<glyph unicode="h" glyph-name="h" horiz-adv-x="616" d="M72 0V831H213V540H216Q240 570 278 588T360 607Q444 607 501 553T558 378V0H416V362Q416 485 333 485Q281 485 247 441T213 334V0H72Z" />
<glyph unicode="i" glyph-name="i" horiz-adv-x="292" d="M72 664V816H220V664H72ZM76 0V589H217V0H76Z" />
<glyph unicode="j" glyph-name="j" horiz-adv-x="300" d="M78 664V816H229V664H78ZM-13 -104H6Q44 -104 62 -79T81 4V589H225V-1Q225 -113 175 -170T29 -227H-13V-104Z" />
<glyph unicode="k" glyph-name="k" horiz-adv-x="584" d="M72 0V831H214V373L409 589H587L367 348L598 0H431L275 248L214 181V0H72Z" />
<glyph unicode="l" glyph-name="l" horiz-adv-x="294" d="M76 0V831H219V0H76Z" />
<glyph unicode="m" glyph-name="m" horiz-adv-x="906" d="M66 0V589H204V527Q220 554 258 580T350 607Q445 607 491 511Q502 530 518 548T575 587T665 607Q849 607 849 378V0H705V375Q705 430 689 457T634 485Q586 485 557 445T527 347V0H386V379Q386 485 315
485Q263 485 236 448T209 348V0H66Z" />
<glyph unicode="n" glyph-name="n" horiz-adv-x="612" d="M66 0V589H204V524Q219 554 258 580T361 607Q554 607 554 378V0H412V361Q412 429 391 457T329 485Q277 485 243 443T209 338V0H66Z" />
<glyph unicode="o" glyph-name="o" horiz-adv-x="615" d="M181 294Q181 194 219 149T308 104Q357 104 396 149T436 294Q436 394 397 439T308 485Q258 485 220 440T181 294ZM34 294Q34 425 103 516T308 607Q400 607 464 561T555 447T582 294Q582 254 575 215T549
132T500 57T421 3T308 -18Q246 -18 197 2T118 53T69 127T42 210T34 294Z" />
<glyph unicode="p" glyph-name="p" horiz-adv-x="640" d="M212 295Q212 207 244 156T336 104Q392 104 426 153T460 295Q460 383 427 434T336 485Q277 485 245 433T212 295ZM72 -236V589H209V523Q264 607 356 607Q464 607 535 523T607 295Q607 213 584 151T523
53T443 0T356 -18Q302 -18 267 5T214 59V-236H72Z" />
<glyph unicode="q" glyph-name="q" horiz-adv-x="639" d="M181 295Q181 204 214 154T304 104Q361 104 394 155T428 295Q428 380 396 432T305 485Q245 485 213 433T181 295ZM34 295Q34 439 105 523T284 607Q376 607 431 523V589H569V-236H426V60Q406 28 370 5T284
-18Q239 -18 197 -1T118 52T57 150T34 295Z" />
<glyph unicode="r" glyph-name="r" horiz-adv-x="412" d="M66 0V589H203V533Q221 563 256 585T339 607Q385 607 414 596V465Q379 476 340 476Q276 476 243 426T209 292V0H66Z" />
<glyph unicode="s" glyph-name="s" horiz-adv-x="545" d="M23 125L124 185Q184 97 279 97Q322 97 346 114T371 160Q371 169 369 176T360 191T349 203T333 214T314 223T292 232T269 240T243 248T217 257Q141 282 95 321T49 434Q49 513 117 560T280 607Q354 607
419 569T516 470L422 413Q360 492 281 492Q240 492 218 476T195 432Q195 423 197 415T206 400T217 388T233 376T251 367T273 358T295 351T319 343T342 335Q517 277 517 159Q517 85 456 34T283 -18Q196 -18 128 21T23 125Z" />
<glyph unicode="t" glyph-name="t" horiz-adv-x="406" d="M17 468V589H105V760H247V589H375V468H247V194Q247 122 310 122H376V0H292Q206 0 156 44T105 185V468H17Z" />
<glyph unicode="u" glyph-name="u" horiz-adv-x="610" d="M58 216V589H202V232Q202 104 289 104Q342 104 372 150T402 261V589H544V0H407V61H405Q389 30 351 6T258 -18Q224 -18 193 -8T129 25T78 98T58 216Z" />
<glyph unicode="v" glyph-name="v" horiz-adv-x="579" d="M9 589H164L242 308Q256 253 288 121H291Q317 223 339 308L415 589H571L370 0H209L9 589Z" />
<glyph unicode="w" glyph-name="w" horiz-adv-x="818" d="M9 589H162L215 314Q215 312 226 247T245 140H249Q254 167 266 229T282 314L337 589H483L538 313Q542 290 553 230T570 140H574Q578 164 605 314L657 589H810L652 0H496L442 266Q438 293 427 350T412 434H408Q403
402 392 341T378 266L324 0H168L9 589Z" />
<glyph unicode="x" glyph-name="x" horiz-adv-x="599" d="M6 0L216 301L16 589H190L258 469Q264 458 277 434T297 398H300Q303 403 317 429T339 469L407 589H581L382 301L592 0H422L344 131Q311 188 300 208H297Q279 175 253 131L175 0H6Z" />
<glyph unicode="y" glyph-name="y" horiz-adv-x="580" d="M7 589H162L257 299Q262 283 293 167H297Q317 246 332 299L418 589H573L331 -71Q297 -162 243 -199T108 -236H67V-116H85Q132 -116 160 -98T206 -34L224 21L7 589Z" />
<glyph unicode="z" glyph-name="z" horiz-adv-x="539" d="M24 0V94L316 468H47V589H504V500L209 122H516V0H24Z" />
<glyph unicode="{" glyph-name="braceleft" horiz-adv-x="484" d="M60 332V442H96Q146 442 146 550V744Q146 820 190 861T307 903H400V785H333Q313 785 302 770T290 728V534Q290 440 213 387Q290 338 290 243V48Q290 -10 335 -10H400V-128H306Q236 -128 191 -89T146
29V226Q146 269 134 300T96 332H60Z" />
<glyph unicode="|" glyph-name="bar" horiz-adv-x="330" d="M94 -167V940H237V-167H94Z" />
<glyph unicode="}" glyph-name="braceright" horiz-adv-x="484" d="M85 -10H151Q195 -10 195 47V243Q195 334 271 388Q195 439 195 534V728Q195 754 184 769T152 785H85V903H178Q251 903 295 862T339 744V550Q339 442 389 442H424V332H389Q371 332 359 315T343
275T339 226V29Q339 -50 294 -89T178 -128H85V-10Z" />
<glyph unicode="~" glyph-name="asciitilde" horiz-adv-x="875" d="M67 325Q140 525 307 525Q352 525 392 503T457 455T511 407T565 385Q590 385 610 395T644 426T665 462T682 503L808 449Q738 250 570 250Q526 250 485 272T419 320T364 369T308 391Q237 391 193
273L67 325Z" />
<glyph unicode="&#xa0;" glyph-name=".notdef" horiz-adv-x="250" />
<glyph unicode="&#xa1;" glyph-name="exclamdown" horiz-adv-x="340" d="M91 -219L101 361H240L249 -219H91ZM78 430V594H262V430H78Z" />
<glyph unicode="&#xa2;" glyph-name="cent" horiz-adv-x="568" d="M34 295Q34 409 87 492T237 598V683H367V600Q434 584 478 534T537 426L416 393Q403 431 378 458T313 485Q249 485 215 431T181 295Q181 208 216 156T311 104Q355 104 385 133T429 204L550 170Q536
111 489 60T367 -11V-101H237V-9Q148 11 91 92T34 295Z" />
<glyph unicode="&#xa3;" glyph-name="sterling" horiz-adv-x="666" d="M42 332V459H157V611Q157 714 226 768T412 823Q489 823 546 783T631 691L518 635Q477 692 413 692Q366 692 335 669T304 597V459H517V332H304V243Q304 173 281 142Q315 147 330 147Q363 147
413 128T501 109Q561 109 620 140L658 18Q574 -18 501 -18Q464 -18 391 1T282 20Q243 20 191 12T104 -4L71 -12L37 93Q157 118 157 235V332H42Z" />
<glyph unicode="&#xa4;" glyph-name="currency" horiz-adv-x="727" d="M22 165L141 275Q107 322 107 398Q107 474 141 521L22 630L121 724L233 614Q301 652 364 652Q428 652 496 614L607 724L706 630L588 521Q622 471 622 398Q622 362 611 328T587 275L706 165L607
71L495 180Q427 142 364 142Q295 142 233 180L121 72L22 165ZM237 398Q237 346 272 308T364 270Q420 270 455 307T491 398Q491 451 455 488T364 525Q307 525 272 487T237 398Z" />
<glyph unicode="&#xa5;" glyph-name="yen" horiz-adv-x="699" d="M-2 805H169L277 621Q333 524 348 495H352Q352 495 424 621L533 805H703L482 466H633V361H425V260H633V155H425V0H276V155H68V260H276V361H68V466H219L-2 805Z" />
<glyph unicode="&#xa6;" glyph-name="brokenbar" horiz-adv-x="330" d="M94 495V940H237V495H94ZM94 -167V277H237V-167H94Z" />
<glyph unicode="&#xa7;" glyph-name="section" horiz-adv-x="599" d="M35 61L131 134Q187 67 277 67Q368 67 368 113Q368 142 320 164L206 217Q57 284 57 395Q57 442 83 480T141 541Q84 589 84 654Q84 729 145 776T329 823Q479 823 565 711L472 636Q412 699 325
699Q234 699 234 653Q234 644 237 637T247 623T263 611T284 600T308 588T337 576T369 562Q458 522 489 498Q562 443 562 358Q562 273 483 212Q518 169 518 114Q518 34 458 -12T277 -58Q199 -58 132 -23T35 61ZM208 399Q208 369 226 351T283 315L369 276Q411 318
411 358Q411 402 334 438L253 478Q208 443 208 399Z" />
<glyph unicode="&#xa8;" glyph-name="dieresis" horiz-adv-x="577" d="M103 652V805H253V652H103ZM325 652V805H475V652H325Z" />
<glyph unicode="&#xa9;" glyph-name="copyright" horiz-adv-x="927" d="M252 408Q252 532 314 597T476 662Q554 662 600 619T661 514L562 485Q535 560 477 560Q372 560 372 408Q372 257 477 257Q514 257 538 280T572 337L672 309Q656 243 606 199T476 155Q377
155 315 220T252 408ZM36 407Q36 607 158 726T464 845Q651 845 771 725T892 407Q892 212 772 91T464 -30Q344 -30 248 21T94 173T36 407ZM142 407Q142 247 231 155T464 62Q602 62 694 151T787 407Q787 568 697 660T464 753Q319 753 231 660T142 407Z" />
<glyph unicode="&#xaa;" glyph-name="ordfeminine" horiz-adv-x="421" d="M27 298V387H395V298H27ZM125 584Q125 562 141 548T184 534Q225 534 253 561T282 633V668Q269 665 247 661T213 655T184 648T159 638T142 626T129 608T125 584ZM24 575Q24 616 43 644T97
688T162 711T231 725T282 735V758Q282 787 262 801T210 816Q143 816 94 763L35 813Q64 848 111 870T209 892Q303 892 342 847T382 720V465H286V516Q248 452 170 452Q102 452 63 486T24 575Z" />
<glyph unicode="&#xab;" glyph-name="guillemotleft" horiz-adv-x="588" d="M40 295L223 572L327 503L193 295L325 91L223 20L40 295ZM266 295L449 557L549 481L418 295L549 108L449 33L266 295Z" />
<glyph unicode="&#xac;" glyph-name="logicalnot" horiz-adv-x="612" d="M50 316V444H564V128H428V316H50Z" />
<glyph unicode="&#xad;" glyph-name=".notdef" horiz-adv-x="620" d="M61 338V465H559V338H61Z" />
<glyph unicode="&#xae;" glyph-name="registered" horiz-adv-x="927" d="M289 157V651H497Q574 651 615 608T657 504Q657 421 597 385Q615 368 622 351T637 301Q641 284 646 269T658 236T670 210T685 182T699 157H566Q533 202 515 291Q511 313 509 321T500 337T480
346H409V157H289ZM409 437H481Q508 437 521 452T534 492Q534 514 520 530T481 546H409V437ZM36 409Q36 609 158 727T464 845Q652 845 772 725T892 409Q892 213 772 92T464 -30Q280 -30 158 89T36 409ZM142 409Q142 248 229 158T464 68Q607 68 697 156T787 409Q787
573 697 660T464 747Q317 747 230 658T142 409Z" />
<glyph unicode="&#xaf;" glyph-name="overscore" horiz-adv-x="537" d="M4 741V867H533V741H4Z" />
<glyph unicode="&#xb0;" glyph-name="degree" horiz-adv-x="475" d="M89 663Q89 725 131 768T238 811Q300 811 343 769T387 663Q387 601 343 559T238 516Q176 516 133 558T89 663ZM180 663Q180 638 196 621T238 604Q263 604 279 621T296 663Q296 688 280 705T238
723Q213 723 197 705T180 663Z" />
<glyph unicode="&#xb1;" glyph-name="plusminus" horiz-adv-x="620" d="M40 435V558H238V731H381V558H580V435H381V264H238V435H40ZM42 81V204H577V81H42Z" />
<glyph unicode="&#xb2;" glyph-name="twosuperior" horiz-adv-x="363" d="M25 754Q57 893 181 893Q248 893 290 855T332 751Q332 686 267 617Q258 607 231 581T186 534T155 492H331V407H31Q31 478 63 528T183 662Q229 707 229 753Q229 779 216 793T180 808Q128
808 111 728L25 754Z" />
<glyph unicode="&#xb3;" glyph-name="threesuperior" horiz-adv-x="363" d="M15 516L96 545Q122 481 176 481Q204 481 222 498T241 546Q241 574 220 592T165 611Q142 611 115 608V694Q153 692 163 692Q189 692 206 707T224 752Q224 776 210 791T172 807Q146 807
133 790T109 740L25 766Q34 806 54 833T98 872T141 888T177 892Q245 892 286 855T327 760Q327 694 276 657Q305 643 324 615T344 546Q344 476 299 436T177 395Q122 395 77 426T15 516Z" />
<glyph unicode="&#xb4;" glyph-name="acute" horiz-adv-x="435" d="M94 707L209 900H379L214 707H94Z" />
<glyph unicode="&#xb5;" glyph-name="mu" horiz-adv-x="617" d="M72 -236V589H214V232Q214 104 302 104Q355 104 384 151T414 261V589H557V0H420V57H419Q406 30 368 6T276 -18Q239 -18 214 2V-236H72Z" />
<glyph unicode="&#xb6;" glyph-name="paragraph" horiz-adv-x="694" d="M52 602Q52 711 110 778T280 846H610V-79H493V716H422V-79H305V352Q286 346 264 346Q174 346 113 412T52 602Z" />
<glyph unicode="&#xb7;" glyph-name="middot" horiz-adv-x="386" d="M102 304V470H284V304H102Z" />
<glyph unicode="&#xb8;" glyph-name="cedilla" horiz-adv-x="343" d="M46 -134Q91 -143 113 -143Q164 -143 164 -119Q164 -85 68 -80L134 52H259L226 -16Q297 -42 297 -121Q297 -170 259 -207T126 -245Q74 -245 46 -236V-134Z" />
<glyph unicode="&#xb9;" glyph-name="onesuperior" horiz-adv-x="363" d="M44 723V803H73Q161 803 161 868V886H251V408H148V723H44Z" />
<glyph unicode="&#xba;" glyph-name="ordmasculine" horiz-adv-x="431" d="M124 673Q124 602 152 570T216 537Q251 537 279 569T307 673Q307 745 279 777T216 809Q179 809 152 777T124 673ZM23 673Q23 766 71 829T216 893Q312 893 360 829T409 673Q409 637 400
602T371 532T311 475T216 453Q162 453 122 474T62 529T33 599T23 673ZM27 305V395H404V305H27Z" />
<glyph unicode="&#xbb;" glyph-name="guillemotright" horiz-adv-x="588" d="M41 481L140 557L323 295L140 33L41 108L172 295L41 481ZM265 92L397 295L263 503L366 572L549 295L366 20L265 92Z" />
<glyph unicode="&#xbc;" glyph-name="onequarter" horiz-adv-x="1071" d="M61 673V773H99Q195 773 195 842V867H306V314H180V673H61ZM619 149L852 503H955V159H1015V54H955V-58H832V54H619V149ZM743 159H832V245Q832 255 832 281T833 311L799 252L743 159ZM188
-57L702 858H835L323 -57H188Z" />
<glyph unicode="&#xbd;" glyph-name="onehalf" horiz-adv-x="1071" d="M61 673V773H99Q195 773 195 842V867H306V314H180V673H61ZM634 344Q668 510 816 510Q894 510 943 465T993 344Q993 314 986 289T959 238T928 199T886 157Q817 91 795 54H991V-52H641Q641 29
675 88T815 246Q867 295 867 346Q867 373 853 388T815 404Q796 404 782 395T759 370T748 342T740 312L634 344ZM170 -57L691 858H824L306 -57H170Z" />
<glyph unicode="&#xbe;" glyph-name="threequarters" horiz-adv-x="1071" d="M52 446L152 483Q160 463 167 450T195 423T241 408Q270 408 289 426T309 478Q309 508 287 527T229 547Q205 547 166 543V650Q190 648 226 648Q253 648 272 665T291 712Q291 738 276
754T236 770Q216 770 202 758T182 732T167 693L64 725Q74 770 95 801T144 848T194 869T242 876Q321 876 369 832T417 721Q417 649 362 605Q436 563 436 478Q436 397 383 350T241 302Q179 302 126 336T52 446ZM622 148L855 503H958V159H1018V54H958V-58H835V54H622V148ZM746
159H835V239Q835 249 835 278T836 310L800 247L746 159ZM240 -57L767 858H901L376 -57H240Z" />
<glyph unicode="&#xbf;" glyph-name="questiondown" horiz-adv-x="632" d="M64 -5Q64 44 82 82T127 146T180 195T225 253T244 328V363H395V315Q395 272 382 237T349 179T307 133T264 91T231 45T218 -13Q218 -58 242 -83T308 -109Q393 -109 436 9L568 -35Q546 -119
478 -178T308 -237Q200 -237 132 -173T64 -5ZM228 430V594H411V430H228Z" />
<glyph unicode="&#xc0;" glyph-name="Agrave" horiz-adv-x="727" d="M253 309H474L415 499Q395 565 367 661H361Q353 632 337 577T313 499L253 309ZM-4 0L284 805H444L732 0H574L513 190H215L154 0H-4ZM414 1063H584L699 870H579L414 1063Z" />
<glyph unicode="&#xc1;" glyph-name="Aacute" horiz-adv-x="727" d="M253 309H474L415 499Q395 565 367 661H361Q353 632 337 577T313 499L253 309ZM-4 0L284 805H444L732 0H574L513 190H215L154 0H-4ZM279 870L394 1063H564L400 870H279Z" />
<glyph unicode="&#xc2;" glyph-name="Acircumflex" horiz-adv-x="727" d="M253 309H474L415 499Q395 565 367 661H361Q353 632 337 577T313 499L253 309ZM-4 0L284 805H444L732 0H574L513 190H215L154 0H-4ZM126 870L303 1061H424L605 870H457L364 988L274 870H126Z" />
<glyph unicode="&#xc3;" glyph-name="Atilde" horiz-adv-x="727" d="M253 309H474L415 499Q395 565 367 661H361Q353 632 337 577T313 499L253 309ZM-4 0L284 805H444L732 0H574L513 190H215L154 0H-4ZM114 936Q181 1036 276 1036Q314 1036 367 1007T438 977Q463
977 487 994T527 1038L604 973Q533 870 441 870Q402 870 351 900T280 930Q256 930 232 914T192 871L114 936Z" />
<glyph unicode="&#xc4;" glyph-name="Adieresis" horiz-adv-x="727" d="M253 309H474L415 499Q395 565 367 661H361Q353 632 337 577T313 499L253 309ZM-4 0L284 805H444L732 0H574L513 190H215L154 0H-4ZM425 901V1038H569V901H425ZM667 901V1038H811V901H667Z" />
<glyph unicode="&#xc5;" glyph-name="Aring" horiz-adv-x="727" d="M253 309H474L415 499Q395 565 367 661H361Q353 632 337 577T313 499L253 309ZM-4 0L284 805H444L732 0H574L513 190H215L154 0H-4ZM201 979Q201 1044 247 1091T363 1138Q434 1138 480 1091T526
979Q526 911 479 866T363 820Q297 820 249 865T201 979ZM299 979Q299 951 317 933T363 914Q389 914 407 932T426 979Q426 1007 408 1026T363 1045Q336 1045 318 1026T299 979Z" />
<glyph unicode="&#xc6;" glyph-name="AE" horiz-adv-x="1055" d="M306 309H501V663H491L306 309ZM-5 0L414 805H1015V678H649V479H977V353H639V127H1025V0H501V189H248L152 0H-5Z" />
<glyph unicode="&#xc7;" glyph-name="Ccedilla" horiz-adv-x="730" d="M39 403Q39 596 139 709T400 823Q505 823 580 766T691 623L563 581Q498 695 398 695Q304 695 249 616T193 403Q193 268 249 189T398 109Q459 109 507 147T576 241L711 200Q696 162 672 127T611
58T520 3T400 -18Q243 -18 141 94T39 403ZM535 -140Q595 -152 630 -152Q644 -152 657 -150T684 -138T697 -115Q697 -81 582 -81L607 18H735L720 -33Q809 -51 809 -125Q809 -172 767 -206T634 -241Q583 -241 535 -229V-140Z" />
<glyph unicode="&#xc8;" glyph-name="Egrave" horiz-adv-x="660" d="M84 0V805H620V677H233V479H582V353H233V127H630V0H84ZM411 1063H581L696 870H576L411 1063Z" />
<glyph unicode="&#xc9;" glyph-name="Eacute" horiz-adv-x="660" d="M84 0V805H620V677H233V479H582V353H233V127H630V0H84ZM518 870L633 1063H803L639 870H518Z" />
<glyph unicode="&#xca;" glyph-name="Ecircumflex" horiz-adv-x="660" d="M367 870L544 1061H665L846 870H698L605 988L515 870H367ZM84 0V805H620V677H233V479H582V353H233V127H630V0H84Z" />
<glyph unicode="&#xcb;" glyph-name="Edieresis" horiz-adv-x="660" d="M84 0V805H620V677H233V479H582V353H233V127H630V0H84ZM410 901V1038H554V901H410ZM652 901V1038H796V901H652Z" />
<glyph unicode="&#xcc;" glyph-name="Igrave" horiz-adv-x="315" d="M84 0V805H233V0H84ZM-40 1063H130L245 870H125L-40 1063Z" />
<glyph unicode="&#xcd;" glyph-name="Iacute" horiz-adv-x="315" d="M84 0V805H233V0H84ZM65 870L180 1063H350L186 870H65Z" />
<glyph unicode="&#xce;" glyph-name="Icircumflex" horiz-adv-x="315" d="M84 0V805H233V0H84ZM-80 870L97 1061H218L399 870H251L158 988L68 870H-80Z" />
<glyph unicode="&#xcf;" glyph-name="Idieresis" horiz-adv-x="315" d="M84 0V805H233V0H84ZM-34 901V1038H110V901H-34ZM208 901V1038H352V901H208Z" />
<glyph unicode="&#xd0;" glyph-name="Eth" horiz-adv-x="749" d="M84 0V805H329Q514 805 612 701T711 403Q711 339 700 283T662 174T592 84T482 23T329 0H84ZM233 126H313Q433 126 494 192T556 403Q556 552 493 615T315 679H233V126ZM10 345V463H435V345H10Z" />
<glyph unicode="&#xd1;" glyph-name="Ntilde" horiz-adv-x="772" d="M139 936Q206 1036 301 1036Q339 1036 392 1007T463 977Q488 977 512 994T552 1038L629 973Q558 870 466 870Q427 870 376 900T305 930Q281 930 257 914T217 871L139 936ZM84 0V805H237L464
385L551 223H556Q540 340 540 457V805H689V0H536L310 409L221 578H217Q233 467 233 344V0H84Z" />
<glyph unicode="&#xd2;" glyph-name="Ograve" horiz-adv-x="775" d="M39 402Q39 592 135 707T388 823Q546 823 641 708T737 402Q737 212 642 97T388 -18Q230 -18 135 97T39 402ZM193 402Q193 267 244 188T388 109Q479 109 530 187T582 402Q582 537 531 616T388
695Q297 695 245 616T193 402ZM182 1073H352L467 880H347L182 1073Z" />
<glyph unicode="&#xd3;" glyph-name="Oacute" horiz-adv-x="775" d="M39 402Q39 592 135 707T388 823Q546 823 641 708T737 402Q737 212 642 97T388 -18Q230 -18 135 97T39 402ZM193 402Q193 267 244 188T388 109Q479 109 530 187T582 402Q582 537 531 616T388
695Q297 695 245 616T193 402ZM307 880L422 1073H592L428 880H307Z" />
<glyph unicode="&#xd4;" glyph-name="Ocircumflex" horiz-adv-x="775" d="M39 402Q39 592 135 707T388 823Q546 823 641 708T737 402Q737 212 642 97T388 -18Q230 -18 135 97T39 402ZM193 402Q193 267 244 188T388 109Q479 109 530 187T582 402Q582 537 531 616T388
695Q297 695 245 616T193 402ZM149 880L326 1071H447L628 880H480L387 998L297 880H149Z" />
<glyph unicode="&#xd5;" glyph-name="Otilde" horiz-adv-x="775" d="M141 936Q208 1036 303 1036Q341 1036 394 1007T465 977Q490 977 514 994T554 1038L631 973Q560 870 468 870Q429 870 378 900T307 930Q283 930 259 914T219 871L141 936ZM39 402Q39 592 135
707T388 823Q546 823 641 708T737 402Q737 212 642 97T388 -18Q230 -18 135 97T39 402ZM193 402Q193 267 244 188T388 109Q479 109 530 187T582 402Q582 537 531 616T388 695Q297 695 245 616T193 402Z" />
<glyph unicode="&#xd6;" glyph-name="Odieresis" horiz-adv-x="775" d="M39 402Q39 592 135 707T388 823Q546 823 641 708T737 402Q737 212 642 97T388 -18Q230 -18 135 97T39 402ZM193 402Q193 267 244 188T388 109Q479 109 530 187T582 402Q582 537 531 616T388
695Q297 695 245 616T193 402ZM195 901V1038H339V901H195ZM437 901V1038H581V901H437Z" />
<glyph unicode="&#xd7;" glyph-name="multiply" horiz-adv-x="610" d="M36 229L216 400L36 570L129 660L305 488L480 660L574 570L394 400L574 229L480 139L305 312L129 139L36 229Z" />
<glyph unicode="&#xd8;" glyph-name="Oslash" horiz-adv-x="775" d="M39 402Q39 592 135 707T388 823Q471 823 538 789L578 862H700L626 725Q737 609 737 402Q737 212 642 97T388 -18Q311 -18 247 11L208 -59H88L159 70Q39 187 39 402ZM546 585L311 127Q340 109
388 109Q479 109 531 187T583 402Q583 514 546 585ZM475 672Q436 695 388 695Q297 695 245 616T193 402Q193 290 235 209L475 672Z" />
<glyph unicode="&#xd9;" glyph-name="Ugrave" horiz-adv-x="761" d="M80 304V805H230V303Q230 109 381 109Q533 109 533 303V805H683V304Q683 148 608 65T381 -18Q236 -18 158 62T80 304ZM178 1073H348L463 880H343L178 1073Z" />
<glyph unicode="&#xda;" glyph-name="Uacute" horiz-adv-x="761" d="M80 304V805H230V303Q230 109 381 109Q533 109 533 303V805H683V304Q683 148 608 65T381 -18Q236 -18 158 62T80 304ZM297 880L412 1073H582L418 880H297Z" />
<glyph unicode="&#xdb;" glyph-name="Ucircumflex" horiz-adv-x="761" d="M80 304V805H230V303Q230 109 381 109Q533 109 533 303V805H683V304Q683 148 608 65T381 -18Q236 -18 158 62T80 304ZM144 880L321 1071H442L623 880H475L382 998L292 880H144Z" />
<glyph unicode="&#xdc;" glyph-name="Udieresis" horiz-adv-x="761" d="M80 304V805H230V303Q230 109 381 109Q533 109 533 303V805H683V304Q683 148 608 65T381 -18Q236 -18 158 62T80 304ZM190 901V1038H334V901H190ZM432 901V1038H576V901H432Z" />
<glyph unicode="&#xdd;" glyph-name="Yacute" horiz-adv-x="699" d="M-2 805H169L287 571Q327 488 348 445H352Q394 529 414 571L533 805H703L425 326V0H276V326L-2 805ZM522 880L637 1073H807L643 880H522Z" />
<glyph unicode="&#xde;" glyph-name="Thorn" horiz-adv-x="634" d="M84 0V805H232V676H297Q381 676 442 653T537 590T585 506T600 409Q600 275 521 207T303 138H232V0H84ZM232 265H289Q444 265 444 412Q444 549 287 549H232V265Z" />
<glyph unicode="&#xdf;" glyph-name="germandbls" horiz-adv-x="701" d="M84 0V581Q84 699 156 761T336 823Q457 823 529 764T602 602Q602 494 512 438V436Q659 386 659 225Q659 110 590 46T400 -18Q327 -18 269 0L271 132Q330 109 394 109Q440 109 473 142T506
226Q506 289 471 323T365 358H291V484H352Q394 484 421 513T448 594Q448 639 419 667T341 695Q290 695 262 661T233 569V0H84Z" />
<glyph unicode="&#xe0;" glyph-name="agrave" horiz-adv-x="598" d="M178 170Q178 141 200 121T261 101Q318 101 358 139T398 239V285Q358 275 296 266Q178 247 178 170ZM32 158Q32 239 93 291T277 361Q373 377 398 384V415Q398 454 370 474T296 495Q204 495 134
419L48 493Q144 607 295 607Q428 607 484 544T541 363V0H402V67Q383 32 340 7T240 -18Q144 -18 88 31T32 158ZM104 872H274L389 679H269L104 872Z" />
<glyph unicode="&#xe1;" glyph-name="aacute" horiz-adv-x="598" d="M178 170Q178 141 200 121T261 101Q318 101 358 139T398 239V285Q358 275 296 266Q178 247 178 170ZM32 158Q32 239 93 291T277 361Q373 377 398 384V415Q398 454 370 474T296 495Q204 495 134
419L48 493Q144 607 295 607Q428 607 484 544T541 363V0H402V67Q383 32 340 7T240 -18Q144 -18 88 31T32 158ZM189 680L304 873H474L310 680H189Z" />
<glyph unicode="&#xe2;" glyph-name="acircumflex" horiz-adv-x="598" d="M178 170Q178 141 200 121T261 101Q318 101 358 139T398 239V285Q358 275 296 266Q178 247 178 170ZM32 158Q32 239 93 291T277 361Q373 377 398 384V415Q398 454 370 474T296 495Q204
495 134 419L48 493Q144 607 295 607Q428 607 484 544T541 363V0H402V67Q383 32 340 7T240 -18Q144 -18 88 31T32 158ZM56 680L233 871H354L535 680H387L294 798L204 680H56Z" />
<glyph unicode="&#xe3;" glyph-name="atilde" horiz-adv-x="598" d="M178 170Q178 141 200 121T261 101Q318 101 358 139T398 239V285Q358 275 296 266Q178 247 178 170ZM32 158Q32 239 93 291T277 361Q373 377 398 384V415Q398 454 370 474T296 495Q204 495 134
419L48 493Q144 607 295 607Q428 607 484 544T541 363V0H402V67Q383 32 340 7T240 -18Q144 -18 88 31T32 158ZM309 734Q376 834 471 834Q509 834 562 805T633 775Q658 775 682 792T722 836L799 771Q728 668 636 668Q597 668 546 698T475 728Q451 728 427 712T387
669L309 734Z" />
<glyph unicode="&#xe4;" glyph-name="adieresis" horiz-adv-x="598" d="M178 170Q178 141 200 121T261 101Q318 101 358 139T398 239V285Q358 275 296 266Q178 247 178 170ZM32 158Q32 239 93 291T277 361Q373 377 398 384V415Q398 454 370 474T296 495Q204 495
134 419L48 493Q144 607 295 607Q428 607 484 544T541 363V0H402V67Q383 32 340 7T240 -18Q144 -18 88 31T32 158ZM96 709V846H240V709H96ZM338 709V846H482V709H338Z" />
<glyph unicode="&#xe5;" glyph-name="aring" horiz-adv-x="598" d="M178 170Q178 141 200 121T261 101Q318 101 358 139T398 239V285Q358 275 296 266Q178 247 178 170ZM32 158Q32 239 93 291T277 361Q373 377 398 384V415Q398 454 370 474T296 495Q204 495 134
419L48 493Q144 607 295 607Q428 607 484 544T541 363V0H402V67Q383 32 340 7T240 -18Q144 -18 88 31T32 158ZM393 1058Q393 1123 439 1170T555 1217Q626 1217 672 1170T718 1058Q718 990 671 945T555 899Q489 899 441 944T393 1058ZM491 1058Q491 1030 509 1012T555
993Q581 993 599 1011T618 1058Q618 1086 600 1105T555 1124Q528 1124 510 1105T491 1058Z" />
<glyph unicode="&#xe6;" glyph-name="ae" horiz-adv-x="967" d="M32 160Q32 241 98 293T292 364Q360 374 398 382Q398 386 398 400T397 418Q397 453 368 474T298 495Q207 495 133 419L47 492Q141 607 298 607Q424 607 486 531Q556 607 670 607Q782 607 859 521T936
298Q936 289 934 245H537V233Q539 182 573 139T673 96Q763 96 809 179L927 137Q899 72 834 27T672 -18Q531 -18 454 93Q366 -18 240 -18Q144 -18 88 31T32 160ZM178 170Q178 143 200 122T259 101Q317 101 357 139T397 236V285Q390 284 360 277T306 267Q178 249
178 170ZM537 344H791Q792 407 758 450T671 494Q563 494 539 370L537 344Z" />
<glyph unicode="&#xe7;" glyph-name="ccedilla" horiz-adv-x="569" d="M34 294Q34 438 111 522T309 607Q400 607 461 552T537 426L416 393Q405 430 378 457T311 485Q248 485 215 431T181 294Q181 203 218 154T311 104Q355 104 387 134T430 204L551 170Q533 96
466 39T309 -18Q187 -18 111 67T34 294ZM432 -140Q492 -152 527 -152Q541 -152 554 -150T581 -138T594 -115Q594 -81 479 -81L504 18H632L617 -33Q706 -51 706 -125Q706 -172 664 -206T531 -241Q480 -241 432 -229V-140Z" />
<glyph unicode="&#xe8;" glyph-name="egrave" horiz-adv-x="612" d="M34 297Q34 440 112 523T310 607Q426 607 503 522T581 300Q581 263 579 245H179Q179 184 216 140T319 96Q365 96 400 119T454 179L573 137Q545 71 479 27T315 -18Q191 -18 113 67T34 297ZM180
344H436Q436 406 403 450T310 494Q250 494 216 450T180 344ZM118 873H288L403 680H283L118 873Z" />
<glyph unicode="&#xe9;" glyph-name="eacute" horiz-adv-x="612" d="M34 297Q34 440 112 523T310 607Q426 607 503 522T581 300Q581 263 579 245H179Q179 184 216 140T319 96Q365 96 400 119T454 179L573 137Q545 71 479 27T315 -18Q191 -18 113 67T34 297ZM180
344H436Q436 406 403 450T310 494Q250 494 216 450T180 344ZM194 680L309 873H479L315 680H194Z" />
<glyph unicode="&#xea;" glyph-name="ecircumflex" horiz-adv-x="612" d="M34 297Q34 440 112 523T310 607Q426 607 503 522T581 300Q581 263 579 245H179Q179 184 216 140T319 96Q365 96 400 119T454 179L573 137Q545 71 479 27T315 -18Q191 -18 113 67T34 297ZM180
344H436Q436 406 403 450T310 494Q250 494 216 450T180 344ZM69 680L246 871H367L548 680H400L307 798L217 680H69Z" />
<glyph unicode="&#xeb;" glyph-name="edieresis" horiz-adv-x="612" d="M116 709V846H260V709H116ZM358 709V846H502V709H358ZM34 297Q34 440 112 523T310 607Q426 607 503 522T581 300Q581 263 579 245H179Q179 184 216 140T319 96Q365 96 400 119T454 179L573
137Q545 71 479 27T315 -18Q191 -18 113 67T34 297ZM180 344H436Q436 406 403 450T310 494Q250 494 216 450T180 344Z" />
<glyph unicode="&#xec;" glyph-name="igrave" horiz-adv-x="286" d="M72 0V589H215V0H72ZM-53 873H117L232 680H112L-53 873Z" />
<glyph unicode="&#xed;" glyph-name="iacute" horiz-adv-x="286" d="M72 0V589H215V0H72ZM51 680L166 873H336L172 680H51Z" />
<glyph unicode="&#xee;" glyph-name="icircumflex" horiz-adv-x="286" d="M-92 680L85 871H206L387 680H239L146 798L56 680H-92ZM72 0V589H215V0H72Z" />
<glyph unicode="&#xef;" glyph-name="idieresis" horiz-adv-x="286" d="M-45 709V846H99V709H-45ZM197 709V846H341V709H197ZM72 0V589H215V0H72Z" />
<glyph unicode="&#xf0;" glyph-name="eth" horiz-adv-x="611" d="M152 643L462 875L544 782L236 553L152 643ZM34 251Q34 380 106 457T294 535Q333 535 366 523T414 497Q393 583 313 650T136 733L187 849Q241 841 290 823T394 764T488 666T553 517T579 308Q579
160 505 71T297 -18Q178 -18 106 56T34 251ZM181 258Q181 190 213 147T302 104Q355 104 387 145T420 258Q420 326 388 369T301 412Q248 412 215 370T181 258Z" />
<glyph unicode="&#xf1;" glyph-name="ntilde" horiz-adv-x="612" d="M59 734Q126 834 221 834Q259 834 312 805T383 775Q408 775 432 792T472 836L549 771Q478 668 386 668Q347 668 296 698T225 728Q201 728 177 712T137 669L59 734ZM66 0V589H204V524Q219 554
258 580T361 607Q554 607 554 378V0H412V361Q412 429 391 457T329 485Q277 485 243 443T209 338V0H66Z" />
<glyph unicode="&#xf2;" glyph-name="ograve" horiz-adv-x="615" d="M181 294Q181 194 219 149T308 104Q357 104 396 149T436 294Q436 394 397 439T308 485Q258 485 220 440T181 294ZM34 294Q34 425 103 516T308 607Q400 607 464 561T555 447T582 294Q582 254
575 215T549 132T500 57T421 3T308 -18Q246 -18 197 2T118 53T69 127T42 210T34 294ZM118 873H288L403 680H283L118 873Z" />
<glyph unicode="&#xf3;" glyph-name="oacute" horiz-adv-x="615" d="M181 294Q181 194 219 149T308 104Q357 104 396 149T436 294Q436 394 397 439T308 485Q258 485 220 440T181 294ZM34 294Q34 425 103 516T308 607Q400 607 464 561T555 447T582 294Q582 254
575 215T549 132T500 57T421 3T308 -18Q246 -18 197 2T118 53T69 127T42 210T34 294ZM211 680L326 873H496L332 680H211Z" />
<glyph unicode="&#xf4;" glyph-name="ocircumflex" horiz-adv-x="615" d="M67 680L244 871H365L546 680H398L305 798L215 680H67ZM181 294Q181 194 219 149T308 104Q357 104 396 149T436 294Q436 394 397 439T308 485Q258 485 220 440T181 294ZM34 294Q34 425
103 516T308 607Q400 607 464 561T555 447T582 294Q582 254 575 215T549 132T500 57T421 3T308 -18Q246 -18 197 2T118 53T69 127T42 210T34 294Z" />
<glyph unicode="&#xf5;" glyph-name="otilde" horiz-adv-x="615" d="M60 734Q127 834 222 834Q260 834 313 805T384 775Q409 775 433 792T473 836L550 771Q479 668 387 668Q348 668 297 698T226 728Q202 728 178 712T138 669L60 734ZM181 294Q181 194 219 149T308
104Q357 104 396 149T436 294Q436 394 397 439T308 485Q258 485 220 440T181 294ZM34 294Q34 425 103 516T308 607Q400 607 464 561T555 447T582 294Q582 254 575 215T549 132T500 57T421 3T308 -18Q246 -18 197 2T118 53T69 127T42 210T34 294Z" />
<glyph unicode="&#xf6;" glyph-name="odieresis" horiz-adv-x="615" d="M114 709V846H258V709H114ZM356 709V846H500V709H356ZM181 294Q181 194 219 149T308 104Q357 104 396 149T436 294Q436 394 397 439T308 485Q258 485 220 440T181 294ZM34 294Q34 425 103
516T308 607Q400 607 464 561T555 447T582 294Q582 254 575 215T549 132T500 57T421 3T308 -18Q246 -18 197 2T118 53T69 127T42 210T34 294Z" />
<glyph unicode="&#xf7;" glyph-name="divide" horiz-adv-x="610" d="M222 533V692H386V533H222ZM29 333V460H581V333H29ZM222 100V260H386V100H222Z" />
<glyph unicode="&#xf8;" glyph-name="oslash" horiz-adv-x="615" d="M34 294Q34 425 103 516T308 607Q371 607 420 587L459 661H567L498 534Q582 449 582 294Q582 254 575 215T549 132T500 57T421 3T308 -18Q252 -18 201 0L168 -60H61L121 50Q34 136 34 294ZM418
393L263 114Q286 104 308 104Q357 104 396 149T435 294Q435 354 418 393ZM358 473Q336 485 308 485Q258 485 220 440T181 294Q181 233 201 190L358 473Z" />
<glyph unicode="&#xf9;" glyph-name="ugrave" horiz-adv-x="610" d="M58 216V589H202V232Q202 104 289 104Q342 104 372 150T402 261V589H544V0H407V61H405Q389 30 351 6T258 -18Q224 -18 193 -8T129 25T78 98T58 216ZM107 873H277L392 680H272L107 873Z" />
<glyph unicode="&#xfa;" glyph-name="uacute" horiz-adv-x="610" d="M58 216V589H202V232Q202 104 289 104Q342 104 372 150T402 261V589H544V0H407V61H405Q389 30 351 6T258 -18Q224 -18 193 -8T129 25T78 98T58 216ZM207 680L322 873H492L328 680H207Z" />
<glyph unicode="&#xfb;" glyph-name="ucircumflex" horiz-adv-x="610" d="M58 216V589H202V232Q202 104 289 104Q342 104 372 150T402 261V589H544V0H407V61H405Q389 30 351 6T258 -18Q224 -18 193 -8T129 25T78 98T58 216ZM68 680L245 871H366L547 680H399L306
798L216 680H68Z" />
<glyph unicode="&#xfc;" glyph-name="udieresis" horiz-adv-x="610" d="M117 709V846H261V709H117ZM359 709V846H503V709H359ZM58 216V589H202V232Q202 104 289 104Q342 104 372 150T402 261V589H544V0H407V61H405Q389 30 351 6T258 -18Q224 -18 193 -8T129 25T78
98T58 216Z" />
<glyph unicode="&#xfd;" glyph-name="yacute" horiz-adv-x="580" d="M7 589H162L257 299Q262 283 293 167H297Q317 246 332 299L418 589H573L331 -71Q297 -162 243 -199T108 -236H67V-116H85Q132 -116 160 -98T206 -34L224 21L7 589ZM188 680L303 873H473L309 680H188Z" />
<glyph unicode="&#xfe;" glyph-name="thorn" horiz-adv-x="647" d="M221 295Q221 207 254 156T344 104Q401 104 434 154T468 295Q468 383 435 434T343 485Q286 485 254 434T221 295ZM79 -236V831H222V530Q238 562 277 584T364 607Q474 607 544 524T615 295Q615
213 592 151T532 53T452 0T364 -18Q308 -18 274 5T223 57V-236H79Z" />
<glyph unicode="&#xff;" glyph-name="ydieresis" horiz-adv-x="580" d="M95 709V846H239V709H95ZM337 709V846H481V709H337ZM7 589H162L257 299Q262 283 293 167H297Q317 246 332 299L418 589H573L331 -71Q297 -162 243 -199T108 -236H67V-116H85Q132 -116 160
-98T206 -34L224 21L7 589Z" />
<glyph unicode="&#x2013;" glyph-name="endash" horiz-adv-x="528" d="M34 324V451H495V324H34Z" />
<glyph unicode="&#x2014;" glyph-name="emdash" horiz-adv-x="1040" d="M0 324V451H1041V324H0Z" />
<glyph unicode="&#x2018;" glyph-name="quoteleft" horiz-adv-x="389" d="M104 562V681Q104 849 224 932L297 871Q255 841 238 809T221 720H296V562H104Z" />
<glyph unicode="&#x2019;" glyph-name="quoteright" horiz-adv-x="389" d="M94 734V892H285V773Q285 605 165 522L92 582Q134 612 151 645T169 734H94Z" />
<glyph unicode="&#x201a;" glyph-name="quotesinglbase" horiz-adv-x="389" d="M94 8V166H285V48Q285 -121 165 -204L92 -143Q134 -113 151 -80T169 8H94Z" />
<glyph unicode="&#x201c;" glyph-name="quotedblleft" horiz-adv-x="617" d="M352 562V681Q352 848 473 932L545 871Q503 841 486 809T469 720H544V562H352ZM83 562V681Q83 857 204 941L276 881Q235 852 218 815T200 720H274V562H83Z" />
<glyph unicode="&#x201d;" glyph-name="quotedblright" horiz-adv-x="617" d="M72 582Q114 612 131 645T148 734H74V892H265V773Q265 606 144 522L72 582ZM343 573Q384 603 401 639T418 734H344V892H535V773Q535 596 414 512L343 573Z" />
<glyph unicode="&#x201e;" glyph-name="quotedblbase" horiz-adv-x="617" d="M72 -143Q114 -113 131 -81T148 8H74V166H265V48Q265 -120 144 -204L72 -143ZM342 -153Q384 -123 401 -87T418 8H344V166H535V48Q535 -35 505 -103T414 -214L342 -153Z" />
<glyph unicode="&#x2022;" glyph-name="bullet" horiz-adv-x="521" d="M141 267V507H381V267H141Z" />
<glyph unicode="&#x2039;" glyph-name="guilsinglleft" horiz-adv-x="415" d="M64 296L264 571L367 503L217 296L367 91L264 21L64 296Z" />
<glyph unicode="&#x203a;" glyph-name="guilsinglright" horiz-adv-x="415" d="M49 91L199 296L49 503L152 571L352 296L152 22L49 91Z" />
</font>
</defs>
</svg>
