<?xml version="1.0" standalone="no"?>
<!DOCTYPE svg PUBLIC "-//W3C//DTD SVG 1.1//EN" "http://www.w3.org/Graphics/SVG/1.1/DTD/svg11.dtd">
<svg xmlns="http://www.w3.org/2000/svg">
<defs >
<font id="GothicA1" horiz-adv-x="946" ><font-face
    font-family="Gothic A1 Thin"
    units-per-em="1024"
    panose-1="0 0 0 0 0 0 0 0 0 0"
    ascent="817"
    descent="-207"
    alphabetic="0" />
<glyph unicode=" " glyph-name="space" horiz-adv-x="250" />
<glyph unicode="!" glyph-name="exclam" horiz-adv-x="305" d="M112 -8V73H195V-8H112ZM166 203H140L134 708H173L166 203Z" />
<glyph unicode="&quot;" glyph-name="quotedbl" horiz-adv-x="440" d="M250 539L337 804H392L278 539H250ZM70 539L157 804H212L98 539H70Z" />
<glyph unicode="#" glyph-name="numbersign" horiz-adv-x="666" d="M47 209V232H178L210 456H80V479H213L242 683H268L240 479H466L495 683H521L493 479H620V456H490L458 232H588V209H455L426 4H398L428 209H202L173 4H146L175 209H47ZM205 232H431L463 456H237L205 232Z" />
<glyph unicode="$" glyph-name="dollar" horiz-adv-x="576" d="M82 110L106 125Q135 82 188 54T288 26Q365 26 414 60T464 169Q464 193 457 214T442 250T414 280T382 305T342 326T301 343T257 360Q181 388 138 429T95 543Q95 610 144 657T273 706V787H303V706Q353
705 399 676T465 613L441 601Q384 680 287 680Q211 680 168 641T125 542Q125 478 165 442T281 377Q322 361 342 353T397 325T449 287T480 238T494 172Q494 87 439 45T303 0V-78H273V0Q227 1 172 30T82 110Z" />
<glyph unicode="%" glyph-name="percent" horiz-adv-x="941" d="M524 147Q524 219 572 265T692 311Q764 311 812 265T861 147Q861 74 812 28T692 -18Q623 -18 574 27T524 147ZM553 147Q553 84 595 46T692 7Q748 7 790 46T833 147Q833 208 792 246T692 285Q634
285 594 247T553 147ZM81 561Q81 633 130 679T250 726Q322 726 370 680T418 561Q418 488 369 443T250 398Q181 398 131 442T81 561ZM109 561Q109 500 151 462T250 423Q306 423 347 461T389 561Q389 622 349 661T250 701Q192 701 151 662T109 561ZM196 -5L714 712H747L229
-5H196Z" />
<glyph unicode="&amp;" glyph-name="ampersand" horiz-adv-x="623" d="M109 174Q109 102 158 54T283 6Q348 6 401 40T486 126L275 395Q109 307 109 174ZM78 173Q78 260 128 317T258 419Q231 457 219 476T192 527T177 582Q177 639 219 678T336 717Q397 717 442
685T508 608L482 598Q464 635 425 663T337 691Q278 691 243 659T208 583Q208 562 224 528T276 445T341 357T424 252T502 153Q542 225 552 321L581 317Q569 212 523 127L622 0H586L505 102Q474 53 417 17T282 -19Q189 -19 134 36T78 173Z" />
<glyph unicode="&apos;" glyph-name="quotesingle" horiz-adv-x="253" d="M69 539L155 804H210L97 539H69Z" />
<glyph unicode="(" glyph-name="parenleft" horiz-adv-x="454" d="M177 336Q177 627 344 829L366 817Q334 774 311 735T262 636T222 500T208 336Q208 243 223 164T270 19T317 -71T366 -143L344 -155Q177 49 177 336Z" />
<glyph unicode=")" glyph-name="parenright" horiz-adv-x="454" d="M88 -143Q114 -106 126 -88T166 -18T208 78T234 192T247 336Q247 423 233 498T193 634T144 733T88 817L110 829Q277 627 277 336Q277 51 110 -155L88 -143Z" />
<glyph unicode="*" glyph-name="asterisk" horiz-adv-x="542" d="M41 417L52 446L260 368L254 573H290L284 368L492 446L503 417L291 343L451 163L425 142L271 326L119 143L93 163L252 343L41 417Z" />
<glyph unicode="+" glyph-name="plus" horiz-adv-x="542" d="M37 335V361H258V573H286V361H505V335H286V114H258V335H37Z" />
<glyph unicode="," glyph-name="comma" horiz-adv-x="333" d="M66 -183L153 81H207L93 -183H66Z" />
<glyph unicode="-" glyph-name="hyphen" horiz-adv-x="542" d="M56 335V361H488V335H56Z" />
<glyph unicode="." glyph-name="period" horiz-adv-x="333" d="M126 0V81H208V0H126Z" />
<glyph unicode="/" glyph-name="slash" horiz-adv-x="302" d="M-7 -65L279 765H310L24 -65H-7Z" />
<glyph unicode="0" glyph-name="zero" horiz-adv-x="542" d="M93 354Q93 191 139 99T273 7Q321 7 356 35T412 112T441 222T451 354Q451 519 405 609T271 700Q186 700 140 612T93 354ZM62 354Q62 540 119 633T271 726Q367 726 424 633T482 354Q482 278 471 214T436
96T371 12T273 -18Q173 -18 118 80T62 354Z" />
<glyph unicode="1" glyph-name="one" horiz-adv-x="542" d="M120 589V612H158Q229 612 252 626T275 687V720H301V-13H270V589H120Z" />
<glyph unicode="2" glyph-name="two" horiz-adv-x="542" d="M61 564Q110 726 271 726Q356 726 411 677T466 537Q466 431 355 327Q217 200 164 139T98 25H466V0H62Q62 23 69 47T99 102T137 153T194 214T254 272T327 340Q435 443 435 538Q435 617 390 658T268 700Q198
700 152 661T89 557L61 564Z" />
<glyph unicode="3" glyph-name="three" horiz-adv-x="542" d="M48 99L75 113Q103 66 149 37T255 7Q338 7 393 53T449 191Q449 277 391 320T249 364Q210 364 200 363V390Q208 389 245 389Q323 389 371 432T420 550Q420 616 375 658T257 700Q151 700 96 588L68 598Q128
726 258 726Q347 726 398 676T450 551Q450 483 412 438T321 379Q385 367 432 320T480 191Q480 89 418 36T256 -18Q122 -18 48 99Z" />
<glyph unicode="4" glyph-name="four" horiz-adv-x="542" d="M29 203L368 720H402V204H521V179H402V-14H373V179H29V203ZM60 204H373V562Q373 645 374 680H372L311 584L60 204Z" />
<glyph unicode="5" glyph-name="five" horiz-adv-x="542" d="M57 95L82 108Q109 62 153 35T249 7Q336 7 386 63T436 203Q436 292 386 345T251 399Q212 399 168 384T93 338L76 344L113 707H422V682H140L107 379Q174 425 261 425Q351 425 409 364T467 203Q467 110
409 46T249 -18Q187 -18 137 11T57 95Z" />
<glyph unicode="6" glyph-name="six" horiz-adv-x="542" d="M99 214Q99 127 148 67T280 7Q358 7 409 66T461 214Q461 304 409 364T278 424Q200 424 150 363T99 214ZM61 309Q61 384 73 453T111 585T188 687T307 726Q416 726 478 619L453 607Q397 700 307 700Q252
700 211 670T147 590T113 491T96 389Q93 358 91 295Q108 364 158 406T283 449Q375 449 433 382T491 215Q491 118 434 50T283 -18Q195 -18 140 35Q97 76 79 142T61 309Z" />
<glyph unicode="7" glyph-name="seven" horiz-adv-x="542" d="M40 681V707H465V685Q354 498 290 345T179 -14H149Q197 201 261 351T429 681H40Z" />
<glyph unicode="8" glyph-name="eight" horiz-adv-x="542" d="M106 548Q106 480 156 437T271 394Q337 394 387 439T437 548Q437 617 389 658T271 700Q198 700 152 656T106 548ZM51 183Q51 263 95 313T207 382Q150 400 113 441T76 550Q76 622 130 674T271 726Q355
726 411 675T467 550Q467 484 429 441T338 382Q405 364 449 313T493 181Q493 96 430 39T271 -18Q178 -18 115 38T51 183ZM81 185Q81 108 136 58T271 7Q353 7 408 57T463 185Q463 265 407 317T271 369Q194 369 138 318T81 185Z" />
<glyph unicode="9" glyph-name="nine" horiz-adv-x="542" d="M79 494Q79 401 133 344T261 286Q334 286 387 345T441 493Q441 581 390 640T261 700Q183 700 131 642T79 494ZM62 94L89 107Q111 62 152 35T244 7Q441 7 445 397Q427 343 377 302T258 260Q171 260 110
324T49 493Q49 594 107 660T261 726Q343 726 395 677T464 553Q474 508 474 391Q474 -18 243 -18Q178 -18 133 14T62 94Z" />
<glyph unicode=":" glyph-name="colon" horiz-adv-x="333" d="M126 96V178H208V96H126ZM126 468V550H208V468H126Z" />
<glyph unicode=";" glyph-name="semicolon" horiz-adv-x="333" d="M66 -87L153 178H207L93 -87H66ZM122 468V550H204V468H122Z" />
<glyph unicode="&lt;" glyph-name="less" horiz-adv-x="542" d="M76 327V354L469 663L486 641L104 340L486 40L469 19L76 327Z" />
<glyph unicode="=" glyph-name="equal" horiz-adv-x="542" d="M56 247V272H488V247H56ZM56 425V451H488V425H56Z" />
<glyph unicode="&gt;" glyph-name="greater" horiz-adv-x="542" d="M74 19L58 40L438 340L58 641L74 663L467 354V327L74 19Z" />
<glyph unicode="?" glyph-name="question" horiz-adv-x="522" d="M71 591Q99 656 150 691T260 726Q345 726 393 676T441 543Q441 499 423 464T378 403T326 353T281 291T262 209V193H232V210Q232 259 250 298T295 362T347 411T391 468T410 542Q410 613 371 656T260
700Q154 700 97 580L71 591ZM205 -8V73H288V-8H205Z" />
<glyph unicode="@" glyph-name="at" horiz-adv-x="934" d="M69 330Q69 505 185 616T491 728Q661 728 764 632T868 380Q868 249 820 184T702 119Q657 119 626 153T594 243H593Q576 197 532 159T427 120Q362 120 320 169T277 299Q277 406 335 469T473 533Q526 533
556 509T599 458L603 524H628L617 270Q615 211 639 178T704 145Q766 145 803 206T840 377Q840 520 747 611T489 703Q320 703 209 601T97 330Q97 162 202 62T476 -39Q593 -39 692 -9L698 -32Q594 -63 476 -63Q293 -63 181 46T69 330ZM305 298Q305 230 340 188T428
146Q453 146 478 156T531 191T576 263T593 379Q593 428 564 468T471 508Q408 508 357 453T305 298Z" />
<glyph unicode="A" glyph-name="A" horiz-adv-x="597" d="M137 259H461L339 577Q332 596 319 630T300 679H298Q268 599 260 577L137 259ZM3 0L279 707H319L595 0H560L471 234H127L37 0H3Z" />
<glyph unicode="B" glyph-name="B" horiz-adv-x="657" d="M123 0V707H371Q467 707 518 658T570 532Q570 466 535 425T447 369Q512 354 555 305T599 190Q599 106 543 53T399 0H123ZM152 26H392Q470 26 519 72T569 188Q569 258 517 305T386 353H152V26ZM152 378H361Q437
378 489 417T541 531Q541 594 498 637T368 681H152V378Z" />
<glyph unicode="C" glyph-name="C" horiz-adv-x="609" d="M62 354Q62 529 141 627T348 726Q427 726 479 684T553 588L527 576Q504 627 459 663T348 699Q232 699 163 605T93 354Q93 194 164 101T348 8Q419 8 468 44T545 138L572 128Q503 -18 348 -18Q219 -18 141
81T62 354Z" />
<glyph unicode="D" glyph-name="D" horiz-adv-x="664" d="M123 0V707H297Q443 707 528 620T614 354Q614 178 530 89T298 0H123ZM152 26H284Q423 26 503 104T583 354Q583 681 286 681H152V26Z" />
<glyph unicode="E" glyph-name="E" horiz-adv-x="598" d="M123 0V707H543V681H152V380H506V355H152V26H557V0H123Z" />
<glyph unicode="F" glyph-name="F" horiz-adv-x="571" d="M123 0V707H526V681H152V370H489V345H152V0H123Z" />
<glyph unicode="G" glyph-name="G" horiz-adv-x="691" d="M62 354Q62 522 139 624T357 726Q436 726 490 687T571 594L546 584Q484 699 357 699Q231 699 162 604T93 354Q93 196 163 102T356 8Q431 8 482 47T555 143T576 265V338H346V364H605V0H579L578 146Q558
76 504 29T355 -18Q216 -18 139 83T62 354Z" />
<glyph unicode="H" glyph-name="H" horiz-adv-x="724" d="M123 0V707H152V378H572V707H602V0H572V353H152V0H123Z" />
<glyph unicode="I" glyph-name="I" horiz-adv-x="275" d="M123 0V707H152V0H123Z" />
<glyph unicode="J" glyph-name="J" horiz-adv-x="471" d="M23 90L51 101Q70 56 105 31T179 8Q319 12 319 199V707H349V189Q349 -18 181 -18Q70 -18 23 90Z" />
<glyph unicode="K" glyph-name="K" horiz-adv-x="609" d="M123 0V707H152V270H154L536 707H577L312 405L600 0H561L291 382L152 224V0H123Z" />
<glyph unicode="L" glyph-name="L" horiz-adv-x="518" d="M123 0V707H152V26H507V0H123Z" />
<glyph unicode="M" glyph-name="M" horiz-adv-x="868" d="M123 0V707H163L367 254Q381 224 402 172T433 101H435Q444 121 466 173T501 254L705 707H746V0H716V492Q716 549 720 667H718L676 574L450 65H419L193 572L151 668H149Q152 620 152 492V0H123Z" />
<glyph unicode="N" glyph-name="N" horiz-adv-x="733" d="M123 0V707H160L499 173L583 41H586Q581 113 581 209V707H612V0H574L224 551L151 666H149Q152 604 152 479V0H123Z" />
<glyph unicode="O" glyph-name="O" horiz-adv-x="675" d="M62 354Q62 522 136 624T338 726Q466 726 539 624T613 353Q613 186 540 84T338 -18Q209 -18 136 84T62 354ZM93 354Q93 200 157 104T338 8Q452 8 517 103T583 353Q583 511 517 605T338 699Q226 699 160
606T93 354Z" />
<glyph unicode="P" glyph-name="P" horiz-adv-x="642" d="M123 0V707H383Q476 707 534 654T592 510Q592 419 533 366T382 313H152V0H123ZM152 337H372Q459 337 510 381T561 510Q561 591 510 636T370 681H152V337Z" />
<glyph unicode="Q" glyph-name="Q" horiz-adv-x="674" d="M62 353Q62 522 136 624T338 726Q465 726 539 624T613 353Q613 185 539 84T338 -18Q210 -18 136 83T62 353ZM93 353Q93 197 158 103T338 8Q451 8 517 102T583 353Q583 512 516 605T338 699Q226 699 160
606T93 353ZM339 213L361 233L612 -32L590 -50L339 213Z" />
<glyph unicode="R" glyph-name="R" horiz-adv-x="645" d="M152 354H385Q470 354 516 398T563 518Q563 588 516 634T376 681H152V354ZM123 0V707H386Q485 707 539 654T593 519Q593 435 548 391T450 337Q530 307 558 190Q561 178 567 153T576 119T583 93T591 68T599
47T609 23T621 0H587Q560 52 527 189Q492 327 378 327H152V0H123Z" />
<glyph unicode="S" glyph-name="S" horiz-adv-x="592" d="M57 109L86 122Q118 71 175 40T301 8Q390 8 447 52T505 176Q505 207 493 232T464 273T416 306T362 330T300 352Q257 366 232 375T173 402T120 438T87 486T73 551Q73 632 133 679T298 726Q371 726 427 693T511
613L485 602Q456 646 407 672T295 699Q205 699 154 659T103 551Q103 521 115 496T145 455T194 422T249 398T313 376Q349 364 369 357T419 336T467 309T502 276T528 232T536 177Q536 85 474 34T299 -18Q218 -18 157 17T57 109Z" />
<glyph unicode="T" glyph-name="T" horiz-adv-x="526" d="M21 681V707H506V681H279V0H249V681H21Z" />
<glyph unicode="U" glyph-name="U" horiz-adv-x="724" d="M123 241V707H152V246Q152 131 207 70T362 8Q462 8 517 70T573 246V707H603V241Q603 117 542 50T362 -18Q248 -18 186 48T123 241Z" />
<glyph unicode="V" glyph-name="V" horiz-adv-x="537" d="M-3 707H32L216 177Q219 168 237 115T265 34H268Q275 55 283 79T302 132T318 177L507 707H542L284 0H249L-3 707Z" />
<glyph unicode="W" glyph-name="W" horiz-adv-x="809" d="M11 707H45L175 174Q192 102 207 34H209Q215 57 227 103T245 174L385 707H424L564 174Q570 151 582 104T600 34H603Q623 130 634 174L764 707H798L621 0H583L444 523Q423 598 406 673H404Q391 619 366
523L227 0H189L11 707Z" />
<glyph unicode="X" glyph-name="X" horiz-adv-x="501" d="M-4 0L229 364L8 707H45L187 484Q209 450 249 386H252Q257 394 280 429T315 484L456 707H494L272 364L507 0H470L316 240Q315 241 252 341H249Q242 330 220 295T186 240L33 0H-4Z" />
<glyph unicode="Y" glyph-name="Y" horiz-adv-x="534" d="M-2 707H34L208 422Q213 413 234 377T267 322H269Q282 342 329 422L501 707H538L284 292V0H254V292L-2 707Z" />
<glyph unicode="Z" glyph-name="Z" horiz-adv-x="602" d="M63 25L496 681H95V707H531V683L97 26H542V0H63V25Z" />
<glyph unicode="[" glyph-name="bracketleft" horiz-adv-x="455" d="M182 -132V807H344V782H211V-108H344V-132H182Z" />
<glyph unicode="\" glyph-name="backslash" horiz-adv-x="284" d="M-7 765H22L292 -65H263L-7 765Z" />
<glyph unicode="]" glyph-name="bracketright" horiz-adv-x="455" d="M111 -108H244V782H111V807H274V-132H111V-108Z" />
<glyph unicode="^" glyph-name="asciicircum" horiz-adv-x="470" d="M35 486L220 789H251L436 486H402L269 706L236 761H235L201 707L69 486H35Z" />
<glyph unicode="_" glyph-name="underscore" horiz-adv-x="403" d="M9 -51H397V-77H9V-51Z" />
<glyph unicode="`" glyph-name="grave" horiz-adv-x="248" d="M153 539L43 804H98L180 539H153Z" />
<glyph unicode="a" glyph-name="a" horiz-adv-x="542" d="M81 115Q81 71 118 39T224 6Q306 6 366 59T426 195V295Q370 274 258 257Q164 242 123 207T81 115ZM51 113Q51 249 257 280Q383 300 426 320V346Q426 411 383 452T263 493Q215 493 172 471T98 409L77 422Q105
463 155 490T263 518Q357 518 406 469T455 343V0H427V109Q409 58 352 20T222 -18Q143 -18 97 18T51 113Z" />
<glyph unicode="b" glyph-name="b" horiz-adv-x="565" d="M100 0V738H130V369Q142 425 189 471T305 518Q398 518 453 447T509 251Q509 117 449 50T304 -18Q241 -18 196 22T130 120V0H100ZM128 251Q128 136 179 71T302 6Q382 6 432 72T482 251Q482 362 432 427T303
493Q232 493 180 429T128 251Z" />
<glyph unicode="c" glyph-name="c" horiz-adv-x="483" d="M57 250Q57 366 113 442T270 518Q329 518 373 487T437 408L410 399Q392 441 355 467T270 493Q188 493 137 425T86 250Q86 141 138 74T270 6Q320 6 362 35T426 106L451 96Q428 48 380 15T270 -18Q176 -18
117 54T57 250Z" />
<glyph unicode="d" glyph-name="d" horiz-adv-x="565" d="M57 251Q57 376 113 447T262 518Q327 518 373 475T437 370V738H466V0H438V121Q418 61 373 22T261 -18Q178 -18 118 49T57 251ZM86 251Q86 141 134 74T264 6Q337 6 387 71T438 251Q438 364 386 428T263
493Q184 493 135 428T86 251Z" />
<glyph unicode="e" glyph-name="e" horiz-adv-x="537" d="M57 253Q57 368 115 443T272 518Q371 518 428 444T485 268Q485 264 485 256T484 242H86Q86 145 137 76T275 6Q331 6 376 35T446 107L471 96Q443 45 394 14T275 -18Q174 -18 116 58T57 253ZM86 265H455Q455
358 405 425T272 493Q213 493 170 458T108 372T86 265Z" />
<glyph unicode="f" glyph-name="f" horiz-adv-x="314" d="M27 475V500H125V602Q125 672 160 705T255 738H298V713H257Q155 713 155 595V500H284V475H155V0H125V475H27Z" />
<glyph unicode="g" glyph-name="g" horiz-adv-x="558" d="M86 259Q86 154 134 89T258 24Q338 24 384 87T430 261Q430 365 383 429T260 493Q178 493 132 428T86 259ZM57 259Q57 374 111 446T258 518Q326 518 368 477T430 382V500H459V37Q459 -104 414 -171T263
-239Q211 -239 167 -217T94 -158L117 -143Q178 -214 263 -214Q354 -214 392 -153T430 32V131Q384 -2 259 -2Q167 -2 112 71T57 259Z" />
<glyph unicode="h" glyph-name="h" horiz-adv-x="563" d="M100 0V738H130V394H131Q147 440 197 479T314 518Q392 518 432 468T472 325V0H444V316Q444 493 308 493Q239 493 185 438T130 308V0H100Z" />
<glyph unicode="i" glyph-name="i" horiz-adv-x="271" d="M102 644V718H169V644H102ZM122 0V500H151V0H122Z" />
<glyph unicode="j" glyph-name="j" horiz-adv-x="274" d="M105 644V718H171V644H105ZM-4 -204H23Q125 -204 125 -70V500H153V-74Q153 -150 121 -189T29 -229H-4V-204Z" />
<glyph unicode="k" glyph-name="k" horiz-adv-x="475" d="M101 0V738H131V193L406 500H445L271 304L472 0H436L249 281L131 151V0H101Z" />
<glyph unicode="l" glyph-name="l" horiz-adv-x="236" d="M103 0V738H133V0H103Z" />
<glyph unicode="m" glyph-name="m" horiz-adv-x="828" d="M96 0V500H124V404H126Q141 448 181 483T287 518Q352 518 384 478T424 382Q425 394 435 414T464 458T520 500T601 518Q672 518 705 471T738 325V0H709V318Q709 404 685 448T593 493Q527 493 480 440T433
301V0H403V317Q403 493 283 493Q214 493 170 441T125 308V0H96Z" />
<glyph unicode="n" glyph-name="n" horiz-adv-x="558" d="M96 0V500H124V387H126Q134 428 185 473T309 518Q338 518 362 511T412 484T453 424T468 325V0H438V316Q438 493 304 493Q235 493 180 438T125 308V0H96Z" />
<glyph unicode="o" glyph-name="o" horiz-adv-x="544" d="M86 250Q86 144 136 75T272 6Q356 6 407 75T459 250Q459 357 407 425T272 493Q190 493 138 426T86 250ZM57 250Q57 367 114 442T272 518Q370 518 429 443T489 250Q489 138 432 60T272 -18Q169 -18 113 60T57 250Z" />
<glyph unicode="p" glyph-name="p" horiz-adv-x="565" d="M129 252Q129 142 177 74T303 6Q380 6 431 72T482 251Q482 357 435 425T303 493Q229 493 179 425T129 252ZM100 -235V500H130V373Q151 440 197 479T305 518Q398 518 453 446T509 251Q509 123 451 53T304
-18Q240 -18 196 21T130 124V-235H100Z" />
<glyph unicode="q" glyph-name="q" horiz-adv-x="565" d="M86 251Q86 139 135 73T263 6Q341 6 389 75T437 252Q437 358 387 425T263 493Q179 493 133 425T86 251ZM57 251Q57 373 112 445T261 518Q320 518 368 480T438 375V500H466V-235H437V125Q415 62 371 22T262
-18Q172 -18 115 52T57 251Z" />
<glyph unicode="r" glyph-name="r" horiz-adv-x="357" d="M96 0V500H124V406Q137 447 175 482T280 518Q321 518 357 502V475Q319 492 280 492Q210 492 168 439T125 304V0H96Z" />
<glyph unicode="s" glyph-name="s" horiz-adv-x="469" d="M49 82L72 95Q98 54 141 30T237 6Q306 6 348 36T391 115Q391 138 380 156T357 185T316 208T272 225T220 242Q184 253 161 262T112 287T73 329T60 386Q60 448 110 483T237 518Q294 518 339 490T407 421L385
408Q363 446 325 469T237 493Q171 493 130 463T89 386Q89 336 127 309T232 263Q263 254 284 248T334 228T379 200T408 164T420 115Q420 59 373 21T237 -18Q110 -18 49 82Z" />
<glyph unicode="t" glyph-name="t" horiz-adv-x="342" d="M29 475V500H128V674H159V500H295V475H159V132Q159 75 181 50T253 25L295 26V0H249Q190 -2 159 29T128 126V475H29Z" />
<glyph unicode="u" glyph-name="u" horiz-adv-x="555" d="M91 170V500H120V184Q120 107 151 57T258 6Q342 6 386 66T431 211V500H459V0H431V109Q422 63 376 23T251 -18Q172 -18 132 34T91 170Z" />
<glyph unicode="v" glyph-name="v" horiz-adv-x="458" d="M16 500H48L189 135Q197 113 211 75T230 25H232Q241 48 273 135L410 500H444L249 0H211L16 500Z" />
<glyph unicode="w" glyph-name="w" horiz-adv-x="667" d="M13 500H47L153 125Q158 108 178 26H181Q185 44 194 78T208 125L315 500H353L461 125Q487 35 489 27H490Q493 40 503 73T517 125L622 500H656L509 0H470L364 363Q353 399 335 469H332Q311 386 304 363L199
0H159L13 500Z" />
<glyph unicode="x" glyph-name="x" horiz-adv-x="412" d="M6 0L187 261L17 500H52L161 347Q185 313 206 283H207Q213 292 228 313T251 347L358 500H395L225 260L407 0H370L250 175Q248 178 231 202T207 239H206Q199 229 184 208T161 175L42 0H6Z" />
<glyph unicode="y" glyph-name="y" horiz-adv-x="448" d="M13 500H47L180 135Q188 114 202 73T224 11H226Q261 103 272 138L400 500H434L213 -104Q187 -175 156 -205T85 -235H63V-209H81Q149 -209 187 -95L210 -27L13 500Z" />
<glyph unicode="z" glyph-name="z" horiz-adv-x="456" d="M43 0V22L368 475H68V500H403V478L79 25H415V0H43Z" />
<glyph unicode="{" glyph-name="braceleft" horiz-adv-x="455" d="M88 319V343H111Q202 343 202 501V697Q202 749 229 778T294 807H362V782H301Q272 782 252 758T232 689V494Q232 370 159 330Q192 317 212 277T232 175V-5Q232 -56 251 -81T303 -107H362V-131H295Q259
-131 231 -104T202 -21V163Q202 240 178 279T111 319H88Z" />
<glyph unicode="|" glyph-name="bar" horiz-adv-x="227" d="M99 -162V834H129V-162H99Z" />
<glyph unicode="}" glyph-name="braceright" horiz-adv-x="455" d="M93 -107H152Q184 -107 204 -82T224 -5V180Q224 238 244 278T296 330Q224 369 224 490V689Q224 734 204 758T154 782H93V807H161Q199 807 226 779T253 697V501Q253 425 276 384T344 343H367V319H344Q300
319 277 278T253 169V-21Q253 -76 225 -103T159 -131H93V-107Z" />
<glyph unicode="~" glyph-name="asciitilde" horiz-adv-x="709" d="M78 305Q138 415 236 415Q270 415 297 402T344 369T381 331T423 299T476 285Q501 285 522 294T560 322T587 353T610 389L633 376Q603 325 567 293T476 260Q442 260 415 273T369 306T332 344T290
376T235 390Q159 390 101 292L78 305Z" />
<glyph unicode="&#xa0;" glyph-name=".notdef" horiz-adv-x="246" />
<glyph unicode="&#xa1;" glyph-name="exclamdown" horiz-adv-x="305" d="M133 -211L140 294H166L172 -211H133ZM111 423V504H193V423H111Z" />
<glyph unicode="&#xa2;" glyph-name="cent" horiz-adv-x="482" d="M57 250Q57 363 111 439T262 517V594H292V516Q344 510 382 481T437 408L411 399Q393 440 355 466T270 493Q187 493 137 425T86 250Q86 141 137 74T270 6Q320 6 362 35T425 106L450 96Q427 52 387
21T292 -17V-96H262V-18Q171 -16 114 56T57 250Z" />
<glyph unicode="&#xa3;" glyph-name="sterling" horiz-adv-x="534" d="M37 338V364H150V548Q150 636 196 681T323 726Q378 726 419 700T480 635L459 623Q414 700 325 700Q257 700 218 662T179 546V364H414V338H179V193Q179 77 106 21Q183 39 230 39Q264 39 310
24T385 8Q460 8 512 37L522 12Q465 -18 384 -18Q356 -18 307 -3T225 13Q193 13 150 7T80 -7L53 -14L42 11Q96 31 123 83T150 193V338H37Z" />
<glyph unicode="&#xa4;" glyph-name="currency" horiz-adv-x="601" d="M39 128L145 228Q98 278 98 353Q98 428 144 479L39 576L59 596L164 500Q221 548 302 548Q383 548 441 498L544 595L564 575L459 479Q507 425 507 353Q507 283 459 228L564 128L545 110L441
207Q387 158 302 158Q220 158 163 207L59 111L39 128ZM127 353Q127 283 176 234T302 184Q377 184 427 233T478 353Q478 424 428 473T302 523Q228 523 178 474T127 353Z" />
<glyph unicode="&#xa5;" glyph-name="yen" horiz-adv-x="534" d="M-2 707H34L205 439Q212 427 235 391T267 341H269Q278 355 299 388T329 436L501 707H538L303 340H478V316H283V213H478V189H283V0H254V189H55V213H254V316H55V340H234L-2 707Z" />
<glyph unicode="&#xa6;" glyph-name="brokenbar" horiz-adv-x="227" d="M99 453V834H129V453H99ZM99 -162V216H129V-162H99Z" />
<glyph unicode="&#xa7;" glyph-name="section" horiz-adv-x="555" d="M80 31L103 47Q125 10 166 -10T259 -31Q328 -31 365 -6T403 64Q403 102 381 124T305 169L200 215Q144 240 116 269T88 343Q88 371 97 393T125 435T158 464T198 490Q120 544 120 604Q120 662
164 694T293 726Q351 726 398 702T473 634L451 623Q394 700 293 700Q218 700 185 674T151 606Q151 589 156 574T178 543T203 518T241 493T278 473T321 452Q329 448 333 446Q409 408 441 378T473 304Q473 222 386 155Q433 122 433 64Q433 12 390 -22T260 -56Q139
-56 80 31ZM118 347Q118 305 141 282T229 230L361 171Q443 235 443 304Q443 340 416 364T317 424L220 476Q183 451 167 439T135 402T118 347Z" />
<glyph unicode="&#xa8;" glyph-name="dieresis" horiz-adv-x="427" d="M103 642V707H171V642H103ZM259 642V707H325V642H259Z" />
<glyph unicode="&#xa9;" glyph-name="copyright" horiz-adv-x="873" d="M268 358Q268 458 317 524T452 590Q493 590 532 567T597 492L569 482Q553 518 522 540T452 563Q382 563 340 506T298 358Q298 265 340 209T452 152Q496 152 529 177T581 239L609 228Q587
185 546 156T452 126Q371 126 320 189T268 358ZM61 361Q61 520 168 627T437 734Q599 734 706 628T814 361Q814 204 707 96T437 -13Q276 -13 169 94T61 361ZM86 361Q86 217 184 114T437 10Q592 10 690 113T789 361Q789 506 690 608T437 711Q287 711 187 610T86 361Z"
/>
<glyph unicode="&#xaa;" glyph-name="ordfeminine" horiz-adv-x="375" d="M35 335V359H340V335H35ZM61 529Q61 501 86 480T156 458Q210 458 250 493T290 583V647Q266 638 220 630T142 616T86 588T61 529ZM35 528Q35 573 65 600T131 635T217 652T290 671V686Q290
729 262 756T183 783Q141 783 111 763T71 725L51 737Q71 767 107 786T183 806Q249 806 282 772T316 684V447H291V510Q273 478 237 457T155 435Q100 435 68 461T35 528Z" />
<glyph unicode="&#xab;" glyph-name="guillemotleft" horiz-adv-x="395" d="M34 242L186 453L208 439L67 242L207 44L184 29L34 242ZM185 242L337 452L359 437L218 242L358 45L336 30L185 242Z" />
<glyph unicode="&#xac;" glyph-name="logicalnot" horiz-adv-x="522" d="M51 326V351H472V124H442V326H51Z" />
<glyph unicode="&#xad;" glyph-name=".notdef" horiz-adv-x="542" d="M66 335V361H478V335H66Z" />
<glyph unicode="&#xae;" glyph-name="registered" horiz-adv-x="873" d="M318 142V576H471Q530 576 564 542T598 459Q598 378 521 350Q555 330 571 270Q573 263 578 239T587 203T597 174T612 142H576Q569 155 564 171T555 199T548 231T541 260Q531 298 515 318T464
339H349V142H318ZM349 366H466Q511 366 538 391T566 457Q566 497 542 523T466 550H349V366ZM61 360Q61 520 168 627T437 734Q599 734 706 628T814 360Q814 203 708 95T437 -13Q276 -13 169 94T61 360ZM86 360Q86 216 184 113T437 10Q592 10 690 113T789 360Q789
504 690 607T437 711Q287 711 187 610T86 360Z" />
<glyph unicode="&#xaf;" glyph-name="overscore" horiz-adv-x="506" d="M0 767V792H507V767H0Z" />
<glyph unicode="&#xb0;" glyph-name="degree" horiz-adv-x="398" d="M87 609Q87 651 118 683T200 715Q247 715 279 685T312 609Q312 562 279 531T200 500Q153 500 120 531T87 609ZM111 609Q111 570 136 546T200 522Q236 522 262 547T288 609Q288 644 264 668T200
693Q159 693 135 669T111 609Z" />
<glyph unicode="&#xb1;" glyph-name="plusminus" horiz-adv-x="542" d="M45 396V422H258V621H286V422H498V396H286V197H258V396H45ZM48 83V108H495V83H48Z" />
<glyph unicode="&#xb2;" glyph-name="twosuperior" horiz-adv-x="301" d="M33 710Q42 748 70 776T151 805Q199 805 230 777T261 699Q261 639 198 581Q128 516 100 485T64 427H261V405H35Q34 422 41 439T67 480T98 516T141 559T182 598Q236 652 236 699Q236 739
213 760T150 782Q80 782 56 705L33 710Z" />
<glyph unicode="&#xb3;" glyph-name="threesuperior" horiz-adv-x="301" d="M26 465L47 477Q82 418 143 418Q186 418 214 442T243 513Q243 550 218 576T131 602Q126 602 110 600V625Q118 624 130 624Q184 624 206 648T228 706Q228 740 205 761T144 783Q91 783
59 722L37 730Q71 806 144 806Q194 806 223 778T252 707Q252 642 192 615Q268 590 268 513Q268 456 233 426T143 395Q66 395 26 465Z" />
<glyph unicode="&#xb4;" glyph-name="acute" horiz-adv-x="314" d="M87 637L199 804H251L118 637H87Z" />
<glyph unicode="&#xb5;" glyph-name="mu" horiz-adv-x="573" d="M100 -235V500H131V178Q131 103 165 55T270 6Q355 6 402 67T449 211V500H478V0H450V109H448Q436 60 389 21T266 -18Q168 -18 131 64V-235H100Z" />
<glyph unicode="&#xb6;" glyph-name="paragraph" horiz-adv-x="619" d="M72 532Q72 629 122 688T263 748H519V-68H493V719H361V-68H334V331Q287 317 250 317Q174 317 123 373T72 532Z" />
<glyph unicode="&#xb7;" glyph-name="middot" horiz-adv-x="331" d="M125 297V379H207V297H125Z" />
<glyph unicode="&#xb8;" glyph-name="cedilla" horiz-adv-x="279" d="M47 -190Q97 -200 111 -200Q194 -200 194 -144Q194 -98 95 -84L130 -14H158L132 -67Q222 -83 222 -145Q222 -184 194 -204T112 -225Q83 -225 47 -213V-190Z" />
<glyph unicode="&#xb9;" glyph-name="onesuperior" horiz-adv-x="301" d="M64 723V744H89Q126 744 137 750T149 776V802H171V399H145V723H64Z" />
<glyph unicode="&#xba;" glyph-name="ordmasculine" horiz-adv-x="375" d="M64 621Q64 550 97 504T187 458Q242 458 276 504T311 621Q311 692 277 737T187 783Q133 783 99 738T64 621ZM37 621Q37 702 77 754T187 806Q255 806 296 754T337 621Q337 544 298 490T187
435Q115 435 76 489T37 621ZM35 335V359H340V335H35Z" />
<glyph unicode="&#xbb;" glyph-name="guillemotright" horiz-adv-x="395" d="M37 437L59 452L211 242L60 30L39 45L178 242L37 437ZM189 44L329 242L188 439L210 453L362 242L212 29L189 44Z" />
<glyph unicode="&#xbc;" glyph-name="onequarter" horiz-adv-x="928" d="M90 680V703H119Q164 703 177 709T190 742V772H214V296H186V680H90ZM518 104L736 437H765V108H841V83H765V-40H737V83H518V104ZM550 108H737V331Q737 342 737 364T738 394L706 342L550 108ZM158
-50L637 757H668L189 -50H158Z" />
<glyph unicode="&#xbd;" glyph-name="onehalf" horiz-adv-x="928" d="M90 680V703H119Q164 703 177 709T190 742V772H214V296H186V680H90ZM551 328Q586 440 690 440Q746 440 782 407T819 315Q819 244 747 177Q661 97 628 61T586 -7H819V-33H553Q553 10 589 54T723
192Q791 256 791 315Q791 363 763 388T688 414Q648 414 619 390T577 322L551 328ZM135 -50L631 756H662L167 -50H135Z" />
<glyph unicode="&#xbe;" glyph-name="threequarters" horiz-adv-x="928" d="M63 375L88 388Q129 319 202 319Q253 319 287 347T321 431Q321 484 285 510T197 537Q170 537 162 536V563Q170 562 195 562Q243 562 272 588T302 660Q302 700 275 726T203 752Q138 752
102 679L76 689Q116 777 203 777Q262 777 296 744T330 661Q330 620 310 592T258 552Q296 541 322 511T349 431Q349 364 308 329T202 293Q152 293 117 317T63 375ZM528 104L746 437H775V108H851V83H775V-40H747V83H528V104ZM560 108H747V331Q747 342 747 363T748
393L716 343L560 108ZM215 -50L710 756H741L247 -50H215Z" />
<glyph unicode="&#xbf;" glyph-name="questiondown" horiz-adv-x="518" d="M76 -45Q76 -1 94 34T139 95T192 145T237 206T256 289V304H285V288Q285 239 267 200T222 136T170 87T125 30T106 -44Q106 -116 146 -159T257 -202Q364 -202 421 -82L446 -93Q418 -159
368 -193T258 -228Q173 -228 125 -178T76 -45ZM229 424V504H311V424H229Z" />
<glyph unicode="&#xc0;" glyph-name="Agrave" horiz-adv-x="597" d="M137 259H461L339 577Q332 596 319 630T300 679H298Q268 599 260 577L137 259ZM3 0L279 707H319L595 0H560L471 234H127L37 0H3ZM427 963H479L590 796H559L427 963Z" />
<glyph unicode="&#xc1;" glyph-name="Aacute" horiz-adv-x="597" d="M137 259H461L339 577Q332 596 319 630T300 679H298Q268 599 260 577L137 259ZM3 0L279 707H319L595 0H560L471 234H127L37 0H3ZM505 796L616 963H668L536 796H505Z" />
<glyph unicode="&#xc2;" glyph-name="Acircumflex" horiz-adv-x="597" d="M137 259H461L339 577Q332 596 319 630T300 679H298Q268 599 260 577L137 259ZM3 0L279 707H319L595 0H560L471 234H127L37 0H3ZM129 796L284 949H315L471 796H434L300 924L166 796H129Z" />
<glyph unicode="&#xc3;" glyph-name="Atilde" horiz-adv-x="597" d="M137 259H461L339 577Q332 596 319 630T300 679H298Q268 599 260 577L137 259ZM3 0L279 707H319L595 0H560L471 234H127L37 0H3ZM112 834Q123 866 150 892T220 919Q256 919 301 883T370 847Q420
847 451 915L475 905Q440 822 371 822Q341 822 316 840T267 876T220 894Q166 894 137 824L112 834Z" />
<glyph unicode="&#xc4;" glyph-name="Adieresis" horiz-adv-x="597" d="M137 259H461L339 577Q332 596 319 630T300 679H298Q268 599 260 577L137 259ZM3 0L279 707H319L595 0H560L471 234H127L37 0H3ZM423 842V912H494V842H423ZM612 842V912H683V842H612Z" />
<glyph unicode="&#xc5;" glyph-name="Aring" horiz-adv-x="597" d="M137 259H461L339 577Q332 596 319 630T300 679H298Q268 599 260 577L137 259ZM3 0L279 707H319L595 0H560L471 234H127L37 0H3ZM179 874Q179 920 213 954T299 989Q350 989 384 956T418 874Q418
827 385 793T299 759Q248 759 214 793T179 874ZM206 874Q206 836 232 809T299 782Q340 782 365 808T391 874Q391 912 366 938T299 965Q257 965 232 938T206 874Z" />
<glyph unicode="&#xc6;" glyph-name="AE" horiz-adv-x="879" d="M201 259H475V681H466L201 259ZM3 0L450 707H835V681H505V380H800V355H504V26H838V0H475V234H186L37 0H3Z" />
<glyph unicode="&#xc7;" glyph-name="Ccedilla" horiz-adv-x="609" d="M62 354Q62 529 141 627T348 726Q427 726 479 684T553 588L527 576Q504 627 459 663T348 699Q232 699 163 605T93 354Q93 194 164 101T348 8Q419 8 468 44T545 138L572 128Q503 -18 348 -18Q219
-18 141 81T62 354ZM494 72Q543 55 589 55Q623 55 651 72T679 113Q679 170 562 170L583 253H611L595 190Q648 189 677 169T707 113Q707 77 674 55T588 32Q538 32 494 48V72Z" />
<glyph unicode="&#xc8;" glyph-name="Egrave" horiz-adv-x="598" d="M123 0V707H543V681H152V380H506V355H152V26H557V0H123ZM230 963H282L393 796H362L230 963Z" />
<glyph unicode="&#xc9;" glyph-name="Eacute" horiz-adv-x="598" d="M123 0V707H543V681H152V380H506V355H152V26H557V0H123ZM274 796L385 963H437L305 796H274Z" />
<glyph unicode="&#xca;" glyph-name="Ecircumflex" horiz-adv-x="598" d="M168 796L323 949H354L510 796H473L339 924L205 796H168ZM123 0V707H543V681H152V380H506V355H152V26H557V0H123Z" />
<glyph unicode="&#xcb;" glyph-name="Edieresis" horiz-adv-x="598" d="M123 0V707H543V681H152V380H506V355H152V26H557V0H123ZM210 842V912H281V842H210ZM399 842V912H470V842H399Z" />
<glyph unicode="&#xcc;" glyph-name="Igrave" horiz-adv-x="275" d="M123 0V707H152V0H123ZM14 963H66L177 796H146L14 963Z" />
<glyph unicode="&#xcd;" glyph-name="Iacute" horiz-adv-x="275" d="M123 0V707H152V0H123ZM96 796L207 963H259L127 796H96Z" />
<glyph unicode="&#xce;" glyph-name="Icircumflex" horiz-adv-x="275" d="M123 0V707H152V0H123ZM-34 796L121 949H152L308 796H271L137 924L3 796H-34Z" />
<glyph unicode="&#xcf;" glyph-name="Idieresis" horiz-adv-x="275" d="M123 0V707H152V0H123ZM9 842V912H80V842H9ZM198 842V912H269V842H198Z" />
<glyph unicode="&#xd0;" glyph-name="Eth" horiz-adv-x="664" d="M123 0V707H297Q443 707 528 620T614 354Q614 178 530 89T298 0H123ZM152 26H284Q423 26 503 104T583 354Q583 681 286 681H152V26ZM287 352V378H612V352H287Z" />
<glyph unicode="&#xd1;" glyph-name="Ntilde" horiz-adv-x="733" d="M188 834Q199 866 226 892T296 919Q332 919 377 883T446 847Q496 847 527 915L551 905Q516 822 447 822Q417 822 392 840T343 876T296 894Q242 894 213 824L188 834ZM123 0V707H160L499 173L583
41H586Q581 113 581 209V707H612V0H574L224 551L151 666H149Q152 604 152 479V0H123Z" />
<glyph unicode="&#xd2;" glyph-name="Ograve" horiz-adv-x="675" d="M62 354Q62 522 136 624T338 726Q466 726 539 624T613 353Q613 186 540 84T338 -18Q209 -18 136 84T62 354ZM93 354Q93 200 157 104T338 8Q452 8 517 103T583 353Q583 511 517 605T338 699Q226
699 160 606T93 354ZM224 964H276L387 797H356L224 964Z" />
<glyph unicode="&#xd3;" glyph-name="Oacute" horiz-adv-x="675" d="M62 354Q62 522 136 624T338 726Q466 726 539 624T613 353Q613 186 540 84T338 -18Q209 -18 136 84T62 354ZM93 354Q93 200 157 104T338 8Q452 8 517 103T583 353Q583 511 517 605T338 699Q226
699 160 606T93 354ZM290 797L401 964H453L321 797H290Z" />
<glyph unicode="&#xd4;" glyph-name="Ocircumflex" horiz-adv-x="675" d="M62 354Q62 522 136 624T338 726Q466 726 539 624T613 353Q613 186 540 84T338 -18Q209 -18 136 84T62 354ZM93 354Q93 200 157 104T338 8Q452 8 517 103T583 353Q583 511 517 605T338
699Q226 699 160 606T93 354ZM168 797L323 950H354L510 797H473L339 925L205 797H168Z" />
<glyph unicode="&#xd5;" glyph-name="Otilde" horiz-adv-x="675" d="M162 834Q173 866 200 892T270 919Q306 919 351 883T420 847Q470 847 501 915L525 905Q490 822 421 822Q391 822 366 840T317 876T270 894Q216 894 187 824L162 834ZM62 354Q62 522 136 624T338
726Q466 726 539 624T613 353Q613 186 540 84T338 -18Q209 -18 136 84T62 354ZM93 354Q93 200 157 104T338 8Q452 8 517 103T583 353Q583 511 517 605T338 699Q226 699 160 606T93 354Z" />
<glyph unicode="&#xd6;" glyph-name="Odieresis" horiz-adv-x="675" d="M62 354Q62 522 136 624T338 726Q466 726 539 624T613 353Q613 186 540 84T338 -18Q209 -18 136 84T62 354ZM93 354Q93 200 157 104T338 8Q452 8 517 103T583 353Q583 511 517 605T338 699Q226
699 160 606T93 354ZM206 842V912H277V842H206ZM395 842V912H466V842H395Z" />
<glyph unicode="&#xd7;" glyph-name="multiply" horiz-adv-x="542" d="M49 161L253 345L54 530L73 550L271 363L470 550L490 530L291 345L495 160L475 141L271 327L69 141L49 161Z" />
<glyph unicode="&#xd8;" glyph-name="Oslash" horiz-adv-x="674" d="M62 353Q62 521 136 623T338 726Q421 726 485 680L528 768H558L506 663Q613 565 613 353Q613 187 540 85T338 -18Q267 -18 213 14L168 -79H138L192 28Q129 74 96 158T62 353ZM492 634L226 39Q275
8 338 8Q453 8 518 103T583 353Q583 543 492 634ZM472 653Q414 699 338 699Q225 699 159 606T93 353Q93 253 121 175T204 54L472 653Z" />
<glyph unicode="&#xd9;" glyph-name="Ugrave" horiz-adv-x="724" d="M123 241V707H152V246Q152 131 207 70T362 8Q462 8 517 70T573 246V707H603V241Q603 117 542 50T362 -18Q248 -18 186 48T123 241ZM258 964H310L421 797H390L258 964Z" />
<glyph unicode="&#xda;" glyph-name="Uacute" horiz-adv-x="724" d="M123 241V707H152V246Q152 131 207 70T362 8Q462 8 517 70T573 246V707H603V241Q603 117 542 50T362 -18Q248 -18 186 48T123 241ZM308 797L419 964H471L339 797H308Z" />
<glyph unicode="&#xdb;" glyph-name="Ucircumflex" horiz-adv-x="724" d="M123 241V707H152V246Q152 131 207 70T362 8Q462 8 517 70T573 246V707H603V241Q603 117 542 50T362 -18Q248 -18 186 48T123 241ZM195 797L350 950H381L537 797H500L366 925L232 797H195Z" />
<glyph unicode="&#xdc;" glyph-name="Udieresis" horiz-adv-x="724" d="M123 241V707H152V246Q152 131 207 70T362 8Q462 8 517 70T573 246V707H603V241Q603 117 542 50T362 -18Q248 -18 186 48T123 241ZM237 842V912H308V842H237ZM426 842V912H497V842H426Z" />
<glyph unicode="&#xdd;" glyph-name="Yacute" horiz-adv-x="534" d="M-2 707H34L208 422Q213 413 234 377T267 322H269Q282 342 329 422L501 707H538L284 292V0H254V292L-2 707ZM468 797L579 964H631L499 797H468Z" />
<glyph unicode="&#xde;" glyph-name="Thorn" horiz-adv-x="603" d="M123 0V708H152V575H315Q434 575 493 520T553 363Q553 252 484 200T295 148H152V0H123ZM152 173H291Q523 173 523 362Q523 550 309 550H152V173Z" />
<glyph unicode="&#xdf;" glyph-name="germandbls" horiz-adv-x="648" d="M123 0V550Q123 633 180 679T326 726Q413 726 469 675T525 540Q525 474 499 431T436 368V366Q461 361 485 349T534 314T574 254T590 169Q590 91 538 37T397 -18Q319 -18 246 4L254 31Q318
8 396 8Q464 8 511 52T559 169Q559 259 504 304T373 350H316V375H368Q425 375 459 422T494 537Q494 607 449 653T325 699Q247 699 200 658T152 547V0H123Z" />
<glyph unicode="&#xe0;" glyph-name="agrave" horiz-adv-x="542" d="M81 115Q81 71 118 39T224 6Q306 6 366 59T426 195V295Q370 274 258 257Q164 242 123 207T81 115ZM51 113Q51 249 257 280Q383 300 426 320V346Q426 411 383 452T263 493Q215 493 172 471T98
409L77 422Q105 463 155 490T263 518Q357 518 406 469T455 343V0H427V109Q409 58 352 20T222 -18Q143 -18 97 18T51 113ZM163 774H215L326 607H295L163 774Z" />
<glyph unicode="&#xe1;" glyph-name="aacute" horiz-adv-x="542" d="M81 115Q81 71 118 39T224 6Q306 6 366 59T426 195V295Q370 274 258 257Q164 242 123 207T81 115ZM51 113Q51 249 257 280Q383 300 426 320V346Q426 411 383 452T263 493Q215 493 172 471T98
409L77 422Q105 463 155 490T263 518Q357 518 406 469T455 343V0H427V109Q409 58 352 20T222 -18Q143 -18 97 18T51 113ZM199 608L310 775H362L230 608H199Z" />
<glyph unicode="&#xe2;" glyph-name="acircumflex" horiz-adv-x="542" d="M81 115Q81 71 118 39T224 6Q306 6 366 59T426 195V295Q370 274 258 257Q164 242 123 207T81 115ZM51 113Q51 249 257 280Q383 300 426 320V346Q426 411 383 452T263 493Q215 493 172 471T98
409L77 422Q105 463 155 490T263 518Q357 518 406 469T455 343V0H427V109Q409 58 352 20T222 -18Q143 -18 97 18T51 113ZM90 608L245 761H276L432 608H395L261 736L127 608H90Z" />
<glyph unicode="&#xe3;" glyph-name="atilde" horiz-adv-x="542" d="M81 115Q81 71 118 39T224 6Q306 6 366 59T426 195V295Q370 274 258 257Q164 242 123 207T81 115ZM51 113Q51 249 257 280Q383 300 426 320V346Q426 411 383 452T263 493Q215 493 172 471T98
409L77 422Q105 463 155 490T263 518Q357 518 406 469T455 343V0H427V109Q409 58 352 20T222 -18Q143 -18 97 18T51 113ZM339 638Q350 670 377 696T447 723Q483 723 528 687T597 651Q647 651 678 719L702 709Q667 626 598 626Q568 626 543 644T494 680T447 698Q393
698 364 628L339 638Z" />
<glyph unicode="&#xe4;" glyph-name="adieresis" horiz-adv-x="542" d="M81 115Q81 71 118 39T224 6Q306 6 366 59T426 195V295Q370 274 258 257Q164 242 123 207T81 115ZM51 113Q51 249 257 280Q383 300 426 320V346Q426 411 383 452T263 493Q215 493 172 471T98
409L77 422Q105 463 155 490T263 518Q357 518 406 469T455 343V0H427V109Q409 58 352 20T222 -18Q143 -18 97 18T51 113ZM133 648V718H204V648H133ZM322 648V718H393V648H322Z" />
<glyph unicode="&#xe5;" glyph-name="aring" horiz-adv-x="542" d="M81 115Q81 71 118 39T224 6Q306 6 366 59T426 195V295Q370 274 258 257Q164 242 123 207T81 115ZM51 113Q51 249 257 280Q383 300 426 320V346Q426 411 383 452T263 493Q215 493 172 471T98
409L77 422Q105 463 155 490T263 518Q357 518 406 469T455 343V0H427V109Q409 58 352 20T222 -18Q143 -18 97 18T51 113ZM398 964Q398 1010 432 1044T518 1079Q569 1079 603 1046T637 964Q637 917 604 883T518 849Q467 849 433 883T398 964ZM425 964Q425 926 451
899T518 872Q559 872 584 898T610 964Q610 1002 585 1028T518 1055Q476 1055 451 1028T425 964Z" />
<glyph unicode="&#xe6;" glyph-name="ae" horiz-adv-x="905" d="M51 114Q51 180 98 222T256 280Q383 300 425 320V346Q425 410 383 451T264 493Q161 493 98 409L76 422Q104 463 154 490T264 518Q347 518 393 478T448 375Q471 440 522 479T641 518Q736 518 794
443T852 267V241H454V216Q461 128 510 67T643 6Q701 6 744 34T811 106L837 95Q773 -18 642 -18Q567 -18 516 25T442 142Q423 71 362 27T222 -18Q143 -18 97 19T51 114ZM81 115Q81 71 118 39T223 6Q305 6 365 59T425 195V295Q368 273 258 257Q164 243 123 208T81
115ZM454 265H824Q824 357 773 425T641 493Q561 493 512 432T455 286L454 265Z" />
<glyph unicode="&#xe7;" glyph-name="ccedilla" horiz-adv-x="483" d="M57 250Q57 366 113 442T270 518Q329 518 373 487T437 408L410 399Q392 441 355 467T270 493Q188 493 137 425T86 250Q86 141 138 74T270 6Q320 6 362 35T426 106L451 96Q428 48 380 15T270
-18Q176 -18 117 54T57 250ZM415 71Q464 54 510 54Q544 54 572 71T600 112Q600 169 483 169L504 252H532L516 189Q569 188 598 168T628 112Q628 76 595 54T509 31Q459 31 415 47V71Z" />
<glyph unicode="&#xe8;" glyph-name="egrave" horiz-adv-x="537" d="M57 253Q57 368 115 443T272 518Q371 518 428 444T485 268Q485 264 485 256T484 242H86Q86 145 137 76T275 6Q331 6 376 35T446 107L471 96Q443 45 394 14T275 -18Q174 -18 116 58T57 253ZM86
265H455Q455 358 405 425T272 493Q213 493 170 458T108 372T86 265ZM167 775H219L330 608H299L167 775Z" />
<glyph unicode="&#xe9;" glyph-name="eacute" horiz-adv-x="537" d="M57 253Q57 368 115 443T272 518Q371 518 428 444T485 268Q485 264 485 256T484 242H86Q86 145 137 76T275 6Q331 6 376 35T446 107L471 96Q443 45 394 14T275 -18Q174 -18 116 58T57 253ZM86
265H455Q455 358 405 425T272 493Q213 493 170 458T108 372T86 265ZM204 608L315 775H367L235 608H204Z" />
<glyph unicode="&#xea;" glyph-name="ecircumflex" horiz-adv-x="537" d="M57 253Q57 368 115 443T272 518Q371 518 428 444T485 268Q485 264 485 256T484 242H86Q86 145 137 76T275 6Q331 6 376 35T446 107L471 96Q443 45 394 14T275 -18Q174 -18 116 58T57 253ZM86
265H455Q455 358 405 425T272 493Q213 493 170 458T108 372T86 265ZM102 608L257 761H288L444 608H407L273 736L139 608H102Z" />
<glyph unicode="&#xeb;" glyph-name="edieresis" horiz-adv-x="537" d="M142 648V718H213V648H142ZM331 648V718H402V648H331ZM57 253Q57 368 115 443T272 518Q371 518 428 444T485 268Q485 264 485 256T484 242H86Q86 145 137 76T275 6Q331 6 376 35T446 107L471
96Q443 45 394 14T275 -18Q174 -18 116 58T57 253ZM86 265H455Q455 358 405 425T272 493Q213 493 170 458T108 372T86 265Z" />
<glyph unicode="&#xec;" glyph-name="igrave" horiz-adv-x="225" d="M97 0V500H128V0H97ZM-3 775H49L160 608H129L-3 775Z" />
<glyph unicode="&#xed;" glyph-name="iacute" horiz-adv-x="225" d="M97 0V500H128V0H97ZM70 608L181 775H233L101 608H70Z" />
<glyph unicode="&#xee;" glyph-name="icircumflex" horiz-adv-x="225" d="M-58 608L97 761H128L284 608H247L113 736L-21 608H-58ZM97 0V500H128V0H97Z" />
<glyph unicode="&#xef;" glyph-name="idieresis" horiz-adv-x="225" d="M-19 648V718H52V648H-19ZM170 648V718H241V648H170ZM97 0V500H128V0H97Z" />
<glyph unicode="&#xf0;" glyph-name="eth" horiz-adv-x="546" d="M169 555L432 745L448 725L186 536L169 555ZM57 234Q57 349 116 415T274 481Q343 481 388 448T452 363Q414 677 168 713L176 737Q336 712 411 591T487 240Q487 128 433 55T274 -18Q168 -18 113
54T57 234ZM86 234Q86 133 136 70T275 6Q359 6 407 68T456 237Q456 337 407 396T275 456Q192 456 139 399T86 234Z" />
<glyph unicode="&#xf1;" glyph-name="ntilde" horiz-adv-x="558" d="M92 638Q103 670 130 696T200 723Q236 723 281 687T350 651Q400 651 431 719L455 709Q420 626 351 626Q321 626 296 644T247 680T200 698Q146 698 117 628L92 638ZM96 0V500H124V387H126Q134
428 185 473T309 518Q338 518 362 511T412 484T453 424T468 325V0H438V316Q438 493 304 493Q235 493 180 438T125 308V0H96Z" />
<glyph unicode="&#xf2;" glyph-name="ograve" horiz-adv-x="544" d="M86 250Q86 144 136 75T272 6Q356 6 407 75T459 250Q459 357 407 425T272 493Q190 493 138 426T86 250ZM57 250Q57 367 114 442T272 518Q370 518 429 443T489 250Q489 138 432 60T272 -18Q169
-18 113 60T57 250ZM162 775H214L325 608H294L162 775Z" />
<glyph unicode="&#xf3;" glyph-name="oacute" horiz-adv-x="544" d="M86 250Q86 144 136 75T272 6Q356 6 407 75T459 250Q459 357 407 425T272 493Q190 493 138 426T86 250ZM57 250Q57 367 114 442T272 518Q370 518 429 443T489 250Q489 138 432 60T272 -18Q169
-18 113 60T57 250ZM220 608L331 775H383L251 608H220Z" />
<glyph unicode="&#xf4;" glyph-name="ocircumflex" horiz-adv-x="544" d="M102 608L257 761H288L444 608H407L273 736L139 608H102ZM86 250Q86 144 136 75T272 6Q356 6 407 75T459 250Q459 357 407 425T272 493Q190 493 138 426T86 250ZM57 250Q57 367 114 442T272
518Q370 518 429 443T489 250Q489 138 432 60T272 -18Q169 -18 113 60T57 250Z" />
<glyph unicode="&#xf5;" glyph-name="otilde" horiz-adv-x="544" d="M340 638Q351 670 378 696T448 723Q484 723 529 687T598 651Q648 651 679 719L703 709Q668 626 599 626Q569 626 544 644T495 680T448 698Q394 698 365 628L340 638ZM86 250Q86 144 136 75T272
6Q356 6 407 75T459 250Q459 357 407 425T272 493Q190 493 138 426T86 250ZM57 250Q57 367 114 442T272 518Q370 518 429 443T489 250Q489 138 432 60T272 -18Q169 -18 113 60T57 250Z" />
<glyph unicode="&#xf6;" glyph-name="odieresis" horiz-adv-x="544" d="M140 648V718H211V648H140ZM329 648V718H400V648H329ZM86 250Q86 144 136 75T272 6Q356 6 407 75T459 250Q459 357 407 425T272 493Q190 493 138 426T86 250ZM57 250Q57 367 114 442T272
518Q370 518 429 443T489 250Q489 138 432 60T272 -18Q169 -18 113 60T57 250Z" />
<glyph unicode="&#xf7;" glyph-name="divide" horiz-adv-x="542" d="M234 486V559H310V486H234ZM34 335V361H509V335H34ZM234 139V211H310V139H234Z" />
<glyph unicode="&#xf8;" glyph-name="oslash" horiz-adv-x="544" d="M57 250Q57 367 115 442T273 518Q335 518 384 485L420 556H447L404 469Q489 395 489 250Q489 138 432 60T273 -18Q217 -18 173 7L138 -63H111L152 21Q106 56 82 117T57 250ZM390 443L185 31Q226
6 273 6Q357 6 408 75T460 250Q460 373 390 443ZM372 460Q328 493 273 493Q191 493 139 426T86 250Q86 113 165 46L372 460Z" />
<glyph unicode="&#xf9;" glyph-name="ugrave" horiz-adv-x="555" d="M91 170V500H120V184Q120 107 151 57T258 6Q342 6 386 66T431 211V500H459V0H431V109Q422 63 376 23T251 -18Q172 -18 132 34T91 170ZM166 775H218L329 608H298L166 775Z" />
<glyph unicode="&#xfa;" glyph-name="uacute" horiz-adv-x="555" d="M91 170V500H120V184Q120 107 151 57T258 6Q342 6 386 66T431 211V500H459V0H431V109Q422 63 376 23T251 -18Q172 -18 132 34T91 170ZM224 608L335 775H387L255 608H224Z" />
<glyph unicode="&#xfb;" glyph-name="ucircumflex" horiz-adv-x="555" d="M91 170V500H120V184Q120 107 151 57T258 6Q342 6 386 66T431 211V500H459V0H431V109Q422 63 376 23T251 -18Q172 -18 132 34T91 170ZM119 608L274 761H305L461 608H424L290 736L156 608H119Z" />
<glyph unicode="&#xfc;" glyph-name="udieresis" horiz-adv-x="555" d="M152 648V718H223V648H152ZM341 648V718H412V648H341ZM91 170V500H120V184Q120 107 151 57T258 6Q342 6 386 66T431 211V500H459V0H431V109Q422 63 376 23T251 -18Q172 -18 132 34T91 170Z" />
<glyph unicode="&#xfd;" glyph-name="yacute" horiz-adv-x="448" d="M13 500H47L180 135Q188 114 202 73T224 11H226Q261 103 272 138L400 500H434L213 -104Q187 -175 156 -205T85 -235H63V-209H81Q149 -209 187 -95L210 -27L13 500ZM157 608L268 775H320L188 608H157Z" />
<glyph unicode="&#xfe;" glyph-name="thorn" horiz-adv-x="566" d="M129 252Q130 142 179 74T303 6Q382 6 432 71T482 250Q482 357 435 425T303 493Q231 493 180 425T129 252ZM101 -235V738H130V372Q150 438 198 478T305 518Q399 518 454 445T510 250Q510 121
452 52T304 -18Q241 -18 196 22T130 125V-235H101Z" />
<glyph unicode="&#xff;" glyph-name="ydieresis" horiz-adv-x="448" d="M91 648V718H162V648H91ZM280 648V718H351V648H280ZM13 500H47L180 135Q188 114 202 73T224 11H226Q261 103 272 138L400 500H434L213 -104Q187 -175 156 -205T85 -235H63V-209H81Q149 -209
187 -95L210 -27L13 500Z" />
<glyph unicode="&#x2013;" glyph-name="endash" horiz-adv-x="523" d="M53 326V350H471V326H53Z" />
<glyph unicode="&#x2014;" glyph-name="emdash" horiz-adv-x="951" d="M0 326V350H953V326H0Z" />
<glyph unicode="&#x2018;" glyph-name="quoteleft" horiz-adv-x="333" d="M126 549V608Q126 685 142 739T207 839L225 823Q188 782 175 738T161 628H213V549H126Z" />
<glyph unicode="&#x2019;" glyph-name="quoteright" horiz-adv-x="333" d="M120 716V794H208V735Q208 658 191 605T126 505L108 521Q145 562 158 606T172 716H120Z" />
<glyph unicode="&#x201a;" glyph-name="quotesinglbase" horiz-adv-x="333" d="M120 3V81H208V23Q208 -54 191 -108T126 -208L108 -193Q145 -152 158 -107T172 3H120Z" />
<glyph unicode="&#x201c;" glyph-name="quotedblleft" horiz-adv-x="452" d="M280 549V605Q280 682 297 737T362 839L381 823Q344 782 331 737T317 627H368V549H280ZM84 549V605Q84 684 101 743T166 847L184 831Q120 761 120 627H172V549H84Z" />
<glyph unicode="&#x201d;" glyph-name="quotedblright" horiz-adv-x="452" d="M73 520Q110 560 123 605T136 716H84V794H173V738Q173 660 156 604T91 503L73 520ZM269 513Q306 554 319 601T333 716H281V794H369V738Q369 659 352 600T287 496L269 513Z" />
<glyph unicode="&#x201e;" glyph-name="quotedblbase" horiz-adv-x="452" d="M73 -193Q110 -153 123 -108T136 4H84V81H173V26Q173 -51 156 -106T91 -208L73 -193ZM268 -200Q305 -159 318 -111T332 4H281V81H369V26Q369 -53 352 -112T287 -216L268 -200Z" />
<glyph unicode="&#x2022;" glyph-name="bullet" horiz-adv-x="504" d="M150 238V437H355V238H150Z" />
<glyph unicode="&#x2039;" glyph-name="guilsinglleft" horiz-adv-x="350" d="M92 239L247 456L270 440L128 239L270 39L247 24L92 239Z" />
<glyph unicode="&#x203a;" glyph-name="guilsinglright" horiz-adv-x="350" d="M81 38L223 239L80 439L103 455L259 239L103 23L81 38Z" />
</font>
</defs>
</svg>
